<?xml version="1.0" encoding="UTF-8" standalone="no"?>
<svg
   xmlns:dc="http://purl.org/dc/elements/1.1/"
   xmlns:cc="http://creativecommons.org/ns#"
   xmlns:rdf="http://www.w3.org/1999/02/22-rdf-syntax-ns#"
   xmlns:svg="http://www.w3.org/2000/svg"
   xmlns="http://www.w3.org/2000/svg"
   viewBox="0 0 513.33331 392"
   height="392"
   width="513.33331"
   xml:space="preserve"
   id="svg2"
   version="1.1"><metadata
     id="metadata8"><rdf:RDF><cc:Work
         rdf:about=""><dc:format>image/svg+xml</dc:format><dc:type
           rdf:resource="http://purl.org/dc/dcmitype/StillImage" /></cc:Work></rdf:RDF></metadata><defs
     id="defs6" /><g
     transform="matrix(1.3333333,0,0,-1.3333333,0,392)"
     id="g10"><g
       transform="scale(0.1)"
       id="g12"><g
         transform="scale(0.998589,1.00141)"
         id="g14"><path
           id="path16"
           style="fill:none;stroke:#000000;stroke-width:7.49999619;stroke-linecap:butt;stroke-linejoin:round;stroke-miterlimit:10;stroke-dasharray:none;stroke-opacity:1"
           d="M 255.149,2537.89 H 1502.55" /></g><g
         transform="scale(0.998589,1.00141)"
         id="g18"><path
           id="path20"
           style="fill:none;stroke:#000000;stroke-width:7.49999619;stroke-linecap:butt;stroke-linejoin:round;stroke-miterlimit:10;stroke-dasharray:none;stroke-opacity:1"
           d="M 255.149,610.092 V 2537.89" /></g><g
         transform="scale(0.998589,1.00141)"
         id="g22"><path
           id="path24"
           style="fill:none;stroke:#000000;stroke-width:7.49999619;stroke-linecap:butt;stroke-linejoin:round;stroke-miterlimit:10;stroke-dasharray:none;stroke-opacity:1"
           d="M 1502.55,610.092 V 2537.89" /></g><g
         transform="scale(0.998589,1.00141)"
         id="g26"><path
           id="path28"
           style="fill:none;stroke:#000000;stroke-width:7.49999619;stroke-linecap:butt;stroke-linejoin:round;stroke-miterlimit:10;stroke-dasharray:none;stroke-opacity:1"
           d="M 255.149,2537.89 1502.55,1573.99" /></g><g
         transform="scale(0.998589,1.00141)"
         id="g30"><path
           id="path32"
           style="fill:none;stroke:#000000;stroke-width:7.49999619;stroke-linecap:butt;stroke-linejoin:round;stroke-miterlimit:10;stroke-dasharray:none;stroke-opacity:1"
           d="M 1502.55,2537.89 255.149,1573.99" /></g><g
         transform="scale(0.998589,1.00141)"
         id="g34"><path
           id="path36"
           style="fill:none;stroke:#000000;stroke-width:7.49999619;stroke-linecap:butt;stroke-linejoin:round;stroke-miterlimit:10;stroke-dasharray:none;stroke-opacity:1"
           d="m 878.849,1092.04 v 963.9" /></g><g
         transform="scale(0.998589,1.00141)"
         id="g38"><path
           id="path40"
           style="fill:none;stroke:#000000;stroke-width:7.49999619;stroke-linecap:butt;stroke-linejoin:round;stroke-miterlimit:10;stroke-dasharray:none;stroke-opacity:1"
           d="M 255.149,1573.99 1502.55,610.092" /></g><g
         transform="scale(0.998589,1.00141)"
         id="g42"><path
           id="path44"
           style="fill:none;stroke:#000000;stroke-width:7.49999619;stroke-linecap:butt;stroke-linejoin:round;stroke-miterlimit:10;stroke-dasharray:none;stroke-opacity:1"
           d="M 1502.55,1573.99 255.149,610.092" /></g><path
         id="path46"
         style="fill:#000000;fill-opacity:1;fill-rule:evenodd;stroke:none"
         d="m 742.289,990.813 -34.258,45.137 84.649,29.24 -50.391,-74.377" /><g
         transform="scale(0.998589,1.00141)"
         id="g48"><path
           id="path50"
           style="fill:none;stroke:#000000;stroke-width:7.49999619;stroke-linecap:butt;stroke-linejoin:miter;stroke-miterlimit:10;stroke-dasharray:none;stroke-opacity:1"
           d="M 311.85,695.14 739.653,1022.3" /></g><path
         id="path52"
         style="fill:#000000;fill-opacity:1;fill-rule:evenodd;stroke:none"
         d="m 124.281,2503.14 36.239,94.26 h -16.989 l -26.609,-76.65 -24.9142,76.65 H 75.0234 l 33.1216,-94.26 h 16.136" /><path
         id="path54"
         style="fill:#000000;fill-opacity:1;fill-rule:evenodd;stroke:none"
         d="m 191.941,2501.44 c -7.078,0 -13.304,-2.83 -16.984,-7.95 -4.812,-6.53 -7.363,-16.46 -7.363,-30.09 0,-24.98 8.496,-38.04 24.347,-38.04 15.571,0 24.063,13.06 24.063,37.47 0,14.2 -2.262,23.85 -7.074,30.66 -3.965,5.12 -10.196,7.95 -16.989,7.95 z m 0,-7.95 c 9.911,0 14.723,-10.22 14.723,-30.09 0,-21.01 -4.812,-30.66 -15.004,-30.66 -9.625,0 -14.722,10.22 -14.722,30.38 0,20.44 5.097,30.37 15.003,30.37" /><path
         id="path56"
         style="fill:#000000;fill-opacity:1;fill-rule:evenodd;stroke:none"
         d="m 1591.87,2510.53 36.24,94.25 h -16.99 l -26.61,-76.65 -24.91,76.65 h -16.99 l 33.12,-94.25 h 16.14" /><path
         id="path58"
         style="fill:#000000;fill-opacity:1;fill-rule:evenodd;stroke:none"
         d="m 1657.83,2487.53 v -52.52 h 9.06 v 73.81 h -5.94 c -3.4,-11.35 -5.38,-12.77 -19.54,-14.48 v -6.81 h 16.42" /><path
         id="path60"
         style="fill:#000000;fill-opacity:1;fill-rule:evenodd;stroke:none"
         d="m 124.281,1546.69 36.239,94.25 h -16.989 l -26.609,-76.65 -24.9142,76.65 H 75.0234 l 33.1216,-94.25 h 16.136" /><path
         id="path62"
         style="fill:#000000;fill-opacity:1;fill-rule:evenodd;stroke:none"
         d="m 186.281,1504.95 h 4.813 c 10.191,0 15.57,-4.54 15.57,-13.34 0,-9.37 -5.945,-14.76 -15.57,-14.76 -9.91,0 -14.723,4.83 -15.289,15.61 h -9.344 c 0.566,-5.96 1.418,-9.65 3.398,-13.06 3.68,-7.1 11.043,-10.5 20.95,-10.5 15.289,0 25.195,8.8 25.195,22.71 0,9.37 -3.68,14.77 -12.453,17.89 6.793,2.55 10.191,7.95 10.191,15.33 0,12.77 -8.496,20.15 -22.648,20.15 -14.723,0 -22.649,-7.94 -22.934,-23.84 h 9.059 c 0.285,4.54 0.566,7.09 1.699,9.36 1.984,3.98 6.797,6.54 12.457,6.54 8.211,0 13.023,-4.83 13.023,-12.5 0,-5.39 -1.98,-8.51 -5.945,-10.22 -2.547,-0.85 -5.66,-1.42 -12.172,-1.42 v -7.95" /><path
         id="path64"
         style="fill:#000000;fill-opacity:1;fill-rule:evenodd;stroke:none"
         d="m 1591.87,1539.3 36.24,94.26 h -16.99 l -26.61,-76.65 -24.91,76.65 h -16.99 l 33.12,-94.26 h 16.14" /><path
         id="path66"
         style="fill:#000000;fill-opacity:1;fill-rule:evenodd;stroke:none"
         d="m 1664.91,1481.39 v -17.6 h 9.06 v 17.6 h 11.04 v 8.24 h -11.04 v 47.97 h -6.79 l -33.41,-46.56 v -9.65 z m 0,8.24 h -23.21 l 23.21,32.36 v -32.36" /><path
         id="path68"
         style="fill:#000000;fill-opacity:1;fill-rule:evenodd;stroke:none"
         d="m 850.715,2193.98 36.238,94.25 h -16.988 l -26.61,-76.65 -24.914,76.65 h -16.984 l 33.121,-94.25 h 16.137" /><path
         id="path70"
         style="fill:#000000;fill-opacity:1;fill-rule:evenodd;stroke:none"
         d="m 942.441,2127.55 h -39.07 c 1.133,5.96 4.531,9.65 13.59,15.04 l 10.191,5.68 c 10.477,5.68 15.856,13.34 15.856,22.43 0,6.25 -2.551,11.93 -7.078,15.9 -4.246,3.97 -9.625,5.68 -16.703,5.68 -9.344,0 -16.422,-3.13 -20.383,-9.37 -2.551,-3.98 -3.68,-8.8 -3.965,-16.18 h 9.059 c 0.285,5.11 1.132,7.95 2.265,10.5 2.266,4.54 7.078,7.1 12.738,7.1 8.211,0 14.438,-5.97 14.438,-13.92 0,-5.67 -3.395,-10.78 -9.906,-14.47 l -9.625,-5.68 c -15.289,-8.52 -19.817,-15.62 -20.668,-31.8 h 49.261 v 9.09" /><path
         id="path72"
         style="fill:#000000;fill-opacity:1;fill-rule:evenodd;stroke:none"
         d="m 880.156,920.973 36.239,94.257 H 899.41 l -26.613,-76.656 -24.914,76.656 h -16.985 l 33.122,-94.257 h 16.136" /><path
         id="path74"
         style="fill:#000000;fill-opacity:1;fill-rule:evenodd;stroke:none"
         d="m 968.77,919.27 h -38.219 l -5.664,-40.317 h 8.492 c 4.25,5.113 7.93,7.098 13.59,7.098 9.91,0 16.136,-6.813 16.136,-17.883 0,-10.508 -6.226,-17.035 -16.136,-17.035 -7.926,0 -13.024,3.972 -15.004,12.492 h -9.344 c 1.418,-6.246 2.266,-9.086 4.531,-11.926 4.246,-5.676 11.606,-8.515 20.102,-8.515 14.719,0 25.195,10.504 25.195,26.402 0,14.48 -9.625,24.414 -23.781,24.414 -5.094,0 -9.344,-1.133 -13.59,-4.258 l 2.832,20.442 h 30.86 v 9.086" /><path
         id="path76"
         style="fill:#000000;fill-opacity:1;fill-rule:evenodd;stroke:none"
         d="m 153.723,545.941 36.238,94.254 h -16.988 l -26.61,-76.652 -24.914,76.652 h -16.984 l 33.121,-94.254 h 16.137" /><path
         id="path78"
         style="fill:#000000;fill-opacity:1;fill-rule:evenodd;stroke:none"
         d="m 244.598,524.93 c -1.7,12.211 -9.625,19.308 -20.95,19.308 -8.21,0 -15.57,-3.976 -19.816,-10.508 -4.531,-7.097 -6.793,-16.179 -6.793,-29.808 0,-12.207 1.981,-20.156 6.227,-26.969 3.964,-5.965 10.476,-8.801 18.683,-8.801 14.156,0 24.067,10.219 24.067,24.7 0,13.91 -9.344,23.562 -22.649,23.562 -7.078,0 -13.023,-2.84 -16.988,-8.234 0.285,17.886 5.945,28.109 16.703,28.109 6.231,0 10.758,-4.262 12.176,-11.359 z m -22.364,-16.75 c 9.059,0 14.438,-6.246 14.438,-16.18 0,-9.086 -6.227,-15.898 -14.723,-15.898 -8.492,0 -15.004,7.097 -15.004,16.464 0,9.368 6.231,15.614 15.289,15.614" /><path
         id="path80"
         style="fill:#000000;fill-opacity:1;fill-rule:evenodd;stroke:none"
         d="m 1584.51,553.32 36.24,94.254 h -16.99 l -26.61,-76.652 -24.91,76.652 h -16.99 l 33.13,-94.254 h 16.13" /><path
         id="path82"
         style="fill:#000000;fill-opacity:1;fill-rule:evenodd;stroke:none"
         d="m 1677.65,551.617 h -49.54 v -9.086 h 39.91 c -17.55,-24.98 -24.63,-40.597 -30.29,-64.726 h 9.91 c 3.97,23.562 13.31,44.004 30.01,66.148 v 7.664" /><path
         id="path84"
         style="fill:#000000;fill-opacity:1;fill-rule:evenodd;stroke:none"
         d="m 466.266,992.516 c 0,14.474 -1.133,22.994 -3.68,30.094 -6.231,15.61 -20.383,24.98 -38.219,24.98 -26.047,0 -43.031,-20.16 -43.031,-51.383 0,-30.945 16.418,-49.684 42.746,-49.684 21.516,0 36.523,11.922 40.203,32.364 h -15.004 c -4.25,-12.207 -12.742,-18.739 -24.633,-18.739 -9.625,0 -17.55,4.262 -22.644,12.211 -3.684,5.391 -4.816,10.786 -5.098,20.157 z m -69.078,12.204 c 1.417,17.6 11.89,28.96 27.179,28.96 14.723,0 26.043,-12.21 26.043,-27.82 0,-0.29 0,-0.57 -0.281,-1.14 h -52.941" /><path
         id="path86"
         style="fill:#000000;fill-opacity:1;fill-rule:evenodd;stroke:none"
         d="m 502.219,948.793 c -7.078,0 -13.305,-2.84 -16.985,-7.949 -4.812,-6.528 -7.363,-16.465 -7.363,-30.094 0,-24.98 8.496,-38.043 24.348,-38.043 15.57,0 24.062,13.063 24.062,37.477 0,14.195 -2.261,23.847 -7.074,30.66 -3.965,5.109 -10.191,7.949 -16.988,7.949 z m 0,-7.949 c 9.91,0 14.722,-10.219 14.722,-30.094 0,-21.008 -4.812,-30.66 -15.003,-30.66 -9.625,0 -14.723,10.219 -14.723,30.379 0,20.437 5.098,30.375 15.004,30.375" /><g
         transform="scale(0.998589,1.00141)"
         id="g88"><path
           id="path90"
           style="fill:none;stroke:#000000;stroke-width:7.49999619;stroke-linecap:butt;stroke-linejoin:round;stroke-miterlimit:10;stroke-dasharray:none;stroke-opacity:1"
           d="M 2191.74,2901.06 H 3783.59" /></g><g
         transform="scale(0.998589,1.00141)"
         id="g92"><path
           id="path94"
           style="fill:none;stroke:#000000;stroke-width:7.49999619;stroke-linecap:butt;stroke-linejoin:round;stroke-miterlimit:10;stroke-dasharray:none;stroke-opacity:1"
           d="M 2192.02,2766.96 H 3783.31" /></g><g
         transform="scale(0.998589,1.00141)"
         id="g96"><path
           id="path98"
           style="fill:none;stroke:#000000;stroke-width:7.49999619;stroke-linecap:butt;stroke-linejoin:round;stroke-miterlimit:10;stroke-dasharray:none;stroke-opacity:1"
           d="M 2192.02,2641.37 H 3783.31" /></g><g
         transform="scale(0.998589,1.00141)"
         id="g100"><path
           id="path102"
           style="fill:none;stroke:#000000;stroke-width:7.49999619;stroke-linecap:butt;stroke-linejoin:round;stroke-miterlimit:10;stroke-dasharray:none;stroke-opacity:1"
           d="M 2192.02,2515.21 H 3783.31" /></g><g
         transform="scale(0.998589,1.00141)"
         id="g104"><path
           id="path106"
           style="fill:none;stroke:#000000;stroke-width:7.49999619;stroke-linecap:butt;stroke-linejoin:round;stroke-miterlimit:10;stroke-dasharray:none;stroke-opacity:1"
           d="M 2192.02,2381.12 H 3783.31" /></g><g
         transform="scale(0.998589,1.00141)"
         id="g108"><path
           id="path110"
           style="fill:none;stroke:#000000;stroke-width:7.49999619;stroke-linecap:butt;stroke-linejoin:round;stroke-miterlimit:10;stroke-dasharray:none;stroke-opacity:1"
           d="M 2192.02,2255.52 H 3783.31" /></g><g
         transform="scale(0.998589,1.00141)"
         id="g112"><path
           id="path114"
           style="fill:none;stroke:#000000;stroke-width:7.49999619;stroke-linecap:butt;stroke-linejoin:round;stroke-miterlimit:10;stroke-dasharray:none;stroke-opacity:1"
           d="M 2192.02,2121.43 H 3783.31" /></g><g
         transform="scale(0.998589,1.00141)"
         id="g116"><path
           id="path118"
           style="fill:none;stroke:#000000;stroke-width:7.49999619;stroke-linecap:butt;stroke-linejoin:round;stroke-miterlimit:10;stroke-dasharray:none;stroke-opacity:1"
           d="M 2192.02,1995.56 H 3783.31" /></g><g
         transform="scale(0.998589,1.00141)"
         id="g120"><path
           id="path122"
           style="fill:none;stroke:#000000;stroke-width:7.49999619;stroke-linecap:butt;stroke-linejoin:round;stroke-miterlimit:10;stroke-dasharray:none;stroke-opacity:1"
           d="M 2192.02,1869.68 H 3783.31" /></g><g
         transform="scale(0.998589,1.00141)"
         id="g124"><path
           id="path126"
           style="fill:none;stroke:#000000;stroke-width:7.49999619;stroke-linecap:butt;stroke-linejoin:round;stroke-miterlimit:10;stroke-dasharray:none;stroke-opacity:1"
           d="M 2192.02,1735.87 H 3783.31" /></g><g
         transform="scale(0.998589,1.00141)"
         id="g128"><path
           id="path130"
           style="fill:none;stroke:#000000;stroke-width:7.49999619;stroke-linecap:butt;stroke-linejoin:round;stroke-miterlimit:10;stroke-dasharray:none;stroke-opacity:1"
           d="M 2192.02,1609.71 H 3783.31" /></g><g
         transform="scale(0.998589,1.00141)"
         id="g132"><path
           id="path134"
           style="fill:none;stroke:#000000;stroke-width:7.49999619;stroke-linecap:butt;stroke-linejoin:round;stroke-miterlimit:10;stroke-dasharray:none;stroke-opacity:1"
           d="M 2192.02,1475.9 H 3783.31" /></g><g
         transform="scale(0.998589,1.00141)"
         id="g136"><path
           id="path138"
           style="fill:none;stroke:#000000;stroke-width:7.49999619;stroke-linecap:butt;stroke-linejoin:round;stroke-miterlimit:10;stroke-dasharray:none;stroke-opacity:1"
           d="M 2192.02,1350.03 H 3783.31" /></g><g
         transform="scale(0.998589,1.00141)"
         id="g140"><path
           id="path142"
           style="fill:none;stroke:#000000;stroke-width:7.49999619;stroke-linecap:butt;stroke-linejoin:round;stroke-miterlimit:10;stroke-dasharray:none;stroke-opacity:1"
           d="M 2192.02,1223.87 H 3783.31" /></g><g
         transform="scale(0.998589,1.00141)"
         id="g144"><path
           id="path146"
           style="fill:none;stroke:#000000;stroke-width:7.49999619;stroke-linecap:butt;stroke-linejoin:round;stroke-miterlimit:10;stroke-dasharray:none;stroke-opacity:1"
           d="M 2192.02,1090.34 H 3783.31" /></g><g
         transform="scale(0.998589,1.00141)"
         id="g148"><path
           id="path150"
           style="fill:none;stroke:#000000;stroke-width:7.49999619;stroke-linecap:butt;stroke-linejoin:round;stroke-miterlimit:10;stroke-dasharray:none;stroke-opacity:1"
           d="M 2192.02,964.183 H 3783.31" /></g><g
         transform="scale(0.998589,1.00141)"
         id="g152"><path
           id="path154"
           style="fill:none;stroke:#000000;stroke-width:7.49999619;stroke-linecap:butt;stroke-linejoin:round;stroke-miterlimit:10;stroke-dasharray:none;stroke-opacity:1"
           d="M 2192.02,830.656 H 3783.31" /></g><g
         transform="scale(0.998589,1.00141)"
         id="g156"><path
           id="path158"
           style="fill:none;stroke:#000000;stroke-width:7.49999619;stroke-linecap:butt;stroke-linejoin:round;stroke-miterlimit:10;stroke-dasharray:none;stroke-opacity:1"
           d="M 2192.02,704.498 H 3783.31" /></g><g
         transform="scale(0.998589,1.00141)"
         id="g160"><path
           id="path162"
           style="fill:none;stroke:#000000;stroke-width:7.49999619;stroke-linecap:butt;stroke-linejoin:round;stroke-miterlimit:10;stroke-dasharray:none;stroke-opacity:1"
           d="M 2192.02,578.34 H 3783.31" /></g><g
         transform="scale(0.998589,1.00141)"
         id="g164"><path
           id="path166"
           style="fill:none;stroke:#000000;stroke-width:7.49999619;stroke-linecap:butt;stroke-linejoin:round;stroke-miterlimit:10;stroke-dasharray:none;stroke-opacity:1"
           d="M 2192.02,444.81 H 3783.31" /></g><g
         transform="scale(0.998589,1.00141)"
         id="g168"><path
           id="path170"
           style="fill:none;stroke:#000000;stroke-width:7.49999619;stroke-linecap:butt;stroke-linejoin:round;stroke-miterlimit:10;stroke-dasharray:none;stroke-opacity:1"
           d="M 2192.02,318.656 H 3783.31" /></g><g
         transform="scale(0.998589,1.00141)"
         id="g172"><path
           id="path174"
           style="fill:none;stroke:#000000;stroke-width:7.49999619;stroke-linecap:butt;stroke-linejoin:round;stroke-miterlimit:10;stroke-dasharray:none;stroke-opacity:1"
           d="M 2192.02,184.841 H 3783.31" /></g><g
         transform="scale(0.998589,1.00141)"
         id="g176"><path
           id="path178"
           style="fill:none;stroke:#000000;stroke-width:7.49999619;stroke-linecap:butt;stroke-linejoin:round;stroke-miterlimit:10;stroke-dasharray:none;stroke-opacity:1"
           d="M 2191.74,2901.06 V 58.9676 h 1591.85" /></g><g
         transform="scale(0.998589,1.00141)"
         id="g180"><path
           id="path182"
           style="fill:none;stroke:#000000;stroke-width:7.49999619;stroke-linecap:butt;stroke-linejoin:round;stroke-miterlimit:10;stroke-dasharray:none;stroke-opacity:1"
           d="M 2541.01,2900.77 V 59.2523" /></g><g
         transform="scale(0.998589,1.00141)"
         id="g184"><path
           id="path186"
           style="fill:none;stroke:#000000;stroke-width:7.49999619;stroke-linecap:butt;stroke-linejoin:round;stroke-miterlimit:10;stroke-dasharray:none;stroke-opacity:1"
           d="M 3170.38,2900.77 V 59.2523" /></g><g
         transform="scale(0.998589,1.00141)"
         id="g188"><path
           id="path190"
           style="fill:none;stroke:#000000;stroke-width:7.49999619;stroke-linecap:butt;stroke-linejoin:round;stroke-miterlimit:10;stroke-dasharray:none;stroke-opacity:1"
           d="M 3783.59,2901.06 V 58.9676" /></g><path
         id="path192"
         style="fill:#000000;fill-opacity:1;fill-rule:evenodd;stroke:none"
         d="m 2402.67,2791.59 c -8.49,-4.83 -17.55,-6.82 -27.18,-6.82 -9.06,0 -16.13,1.99 -21.79,7.1 -5.67,5.11 -8.5,11.64 -8.5,19.88 0,11.35 3.96,21 11.32,28.95 7.37,8.24 16.71,12.5 27.18,12.5 7.93,0 14.16,-2.27 18.97,-6.82 4.53,-4.54 7.08,-10.5 7.08,-18.17 0,-1.99 -0.57,-6.53 -1.7,-13.34 h -44.45 c 0,-5.68 1.13,-9.66 3.4,-12.21 2.27,-2.55 5.66,-3.69 10.47,-3.69 6.8,0 14.16,1.99 22.65,6.24 z m -9.34,34.92 c 0,0.85 0.28,1.42 0.28,1.7 0,3.69 -1.13,6.82 -2.83,9.09 -1.7,2.27 -4.24,3.4 -7.64,3.4 -3.4,0 -6.8,-1.41 -9.91,-3.97 -3.12,-2.56 -5.38,-5.96 -6.8,-10.22 h 26.9" /><path
         id="path194"
         style="fill:#000000;fill-opacity:1;fill-rule:evenodd;stroke:none"
         d="m 2903.19,2851.49 -38.5,-65.29 h -19.82 l -11.04,65.29 h 18.12 l 5.94,-47.41 27.18,47.41 h 18.12" /><path
         id="path196"
         style="fill:#000000;fill-opacity:1;fill-rule:evenodd;stroke:none"
         d="m 2405.79,2706.14 c 0,-15.9 -2.56,-27.83 -7.37,-35.49 -5.09,-7.38 -12.45,-11.08 -22.36,-10.79 -9.91,0 -17.27,3.41 -22.08,11.07 -5.1,7.67 -7.36,19.31 -7.36,35.21 0,15.04 2.26,26.4 7.36,34.06 4.81,7.39 12.17,11.36 22.08,11.36 9.91,0 17.27,-3.97 22.36,-11.36 4.81,-7.66 7.37,-19.02 7.37,-34.06 z m -29.73,-36.91 c 5.94,0 10.48,2.55 13.59,8.23 3.11,5.4 4.53,14.76 4.53,28.11 0,12.49 -1.42,21.57 -4.25,27.54 -2.83,5.68 -7.36,8.8 -13.87,8.8 -5.95,0 -10.48,-3.12 -13.59,-9.09 -2.83,-6.25 -4.25,-15.33 -4.25,-27.25 0,-12.21 1.42,-21.3 4.53,-27.26 2.83,-6.24 7.36,-9.08 13.31,-9.08" /><path
         id="path198"
         style="fill:#000000;fill-opacity:1;fill-rule:evenodd;stroke:none"
         d="m 2842.89,2710.11 c 2.27,3.12 5.1,5.68 8.78,7.38 3.96,1.99 7.92,2.84 12.17,2.84 7.93,0 14.44,-2.56 19.54,-8.23 5.37,-5.4 7.92,-12.49 7.92,-21.01 0,-9.37 -2.55,-17.04 -7.64,-22.71 -4.82,-5.97 -11.89,-8.52 -20.95,-8.52 -10.19,0 -17.84,3.41 -23.22,11.07 -5.38,7.67 -7.92,18.74 -7.92,33.22 0,15.33 2.83,27.25 9.06,35.2 5.94,7.95 14.15,12.21 24.91,12.21 7.64,0 14.72,-2.27 21.23,-6.25 l -3.39,-9.08 c -5.95,3.69 -11.9,5.68 -17.84,5.68 -7.08,0 -12.74,-2.84 -16.42,-7.95 -3.96,-5.4 -5.95,-13.35 -6.23,-23.85 z m 19.54,-40.88 c 5.66,0 9.9,1.98 12.73,5.68 3.12,3.69 4.54,8.8 4.54,15.33 0,6.24 -1.42,11.07 -4.54,15.04 -3.39,3.69 -7.64,5.4 -13.3,5.4 -1.42,0 -2.83,0 -4.53,-0.57 -1.42,-0.57 -2.83,-1.14 -4.25,-1.99 -1.41,-0.85 -2.83,-1.7 -3.96,-2.84 -1.42,-1.13 -2.55,-2.55 -3.96,-4.26 -1.14,-1.98 -1.7,-3.12 -1.7,-3.68 0,-7.39 1.7,-13.63 4.81,-19.31 3.4,-5.68 7.93,-8.8 14.16,-8.8" /><path
         id="path200"
         style="fill:#000000;fill-opacity:1;fill-rule:evenodd;stroke:none"
         d="m 2386.82,2528.7 h -11.33 v 73.53 c -5.09,-5.11 -12.74,-7.67 -22.36,-7.67 v 10.51 c 11.89,0 20.38,4.25 25.48,12.77 h 8.21 v -89.14" /><path
         id="path202"
         style="fill:#000000;fill-opacity:1;fill-rule:evenodd;stroke:none"
         d="m 2404.37,2396.4 h -58.6 v 9.08 c 10.47,9.94 18.96,17.89 25.76,23.85 7.08,6.25 12.17,11.64 15.29,16.75 3.39,4.83 4.81,9.94 4.81,15.05 0,4.83 -1.7,8.51 -4.81,11.35 -3.4,3.13 -7.93,4.55 -13.03,4.55 -7.36,0 -15,-2.27 -23.21,-6.53 l -3.12,9.08 c 8.5,4.55 17.84,7.1 27.18,7.1 8.5,0 15.29,-2.55 20.67,-7.38 5.38,-4.54 7.92,-10.79 7.92,-18.17 0,-5.68 -1.69,-11.07 -5.09,-16.47 -3.4,-5.68 -8.78,-11.64 -16.42,-18.45 l -21.8,-19.59 h 44.45 v -10.22" /><path
         id="path204"
         style="fill:#000000;fill-opacity:1;fill-rule:evenodd;stroke:none"
         d="m 2387.1,2319.75 c 5.38,-1.71 9.34,-4.55 12.45,-8.52 3.12,-3.98 4.54,-8.52 4.54,-13.91 0,-7.67 -2.84,-14.48 -9.06,-19.87 -5.95,-5.4 -13.31,-7.67 -22.37,-7.67 -10.47,0 -20.1,2.27 -28.59,7.67 l 3.11,9.08 c 7.93,-5.11 16.14,-7.38 24.63,-7.38 5.66,0 10.76,1.7 14.44,5.11 3.96,3.41 5.95,7.67 5.95,12.78 0,5.67 -1.99,9.93 -5.95,13.05 -3.68,2.84 -9.62,4.26 -16.98,4.26 h -2.84 v 9.65 c 15.57,0 23.22,4.55 23.22,13.63 0,4.26 -1.7,7.67 -4.81,10.22 -3.12,2.56 -7.65,3.98 -13.03,3.98 -7.08,0 -14.43,-2.28 -21.51,-6.53 l -3.12,9.08 c 8.21,4.55 16.42,7.1 25.2,7.1 8.78,0 15.85,-2.27 21.23,-6.53 5.1,-4.26 7.64,-10.22 7.64,-17.32 0,-8.23 -4.81,-13.91 -14.15,-17.6 v -0.28" /><path
         id="path206"
         style="fill:#000000;fill-opacity:1;fill-rule:evenodd;stroke:none"
         d="m 2407.77,2158.21 h -13.03 v -19.31 h -11.32 v 19.31 h -39.35 v 10.5 l 41.33,59.34 h 9.34 v -59.34 h 13.03 z m -24.35,10.5 v 40.88 l -28.31,-40.88 h 28.31" /><path
         id="path208"
         style="fill:#000000;fill-opacity:1;fill-rule:evenodd;stroke:none"
         d="m 2361.34,2067.07 c 3.96,1.43 7.93,1.99 12.17,1.99 9.63,0 17.27,-2.55 22.93,-7.66 5.67,-5.11 8.49,-11.93 8.49,-20.44 0,-8.52 -2.82,-15.62 -8.49,-21.01 -5.94,-5.4 -13.59,-7.67 -22.93,-7.67 -10.47,0 -19.81,2.27 -28.59,7.67 l 3.11,9.09 c 7.93,-5.12 16.14,-7.39 24.63,-7.39 5.95,0 10.76,1.71 14.72,5.4 3.68,3.4 5.66,8.23 5.66,13.91 0,5.68 -1.69,9.93 -5.66,13.34 -3.96,3.41 -8.77,5.11 -14.72,5.11 -4.25,0 -7.93,-0.85 -11.61,-2.27 l -9.62,1.99 v 43.15 h 49.82 v -10.51 h -39.91 v -24.7" /><path
         id="path210"
         style="fill:#000000;fill-opacity:1;fill-rule:evenodd;stroke:none"
         d="m 2358.51,1929.95 c 2.26,3.12 5.09,5.68 8.77,7.38 3.97,1.99 7.93,2.84 12.18,2.84 7.92,0 14.43,-2.55 19.53,-8.23 5.38,-5.39 7.93,-12.49 7.93,-21.01 0,-9.37 -2.55,-17.03 -7.65,-22.71 -4.81,-5.96 -11.89,-8.52 -20.95,-8.52 -10.19,0 -17.83,3.41 -23.21,11.07 -5.38,7.67 -7.93,18.74 -7.93,33.22 0,15.33 2.83,27.26 9.06,35.21 5.95,7.94 14.16,12.2 24.92,12.2 7.64,0 14.72,-2.27 21.23,-6.24 l -3.4,-9.09 c -5.95,3.69 -11.89,5.68 -17.83,5.68 -7.08,0 -12.75,-2.84 -16.43,-7.95 -3.96,-5.39 -5.94,-13.34 -6.22,-23.85 z m 19.53,-40.88 c 5.66,0 9.91,1.99 12.74,5.68 3.11,3.69 4.53,8.8 4.53,15.33 0,6.24 -1.42,11.07 -4.53,15.05 -3.4,3.69 -7.64,5.39 -13.31,5.39 -1.41,0 -2.83,0 -4.52,-0.57 -1.42,-0.57 -2.84,-1.13 -4.25,-1.99 -1.42,-0.85 -2.83,-1.7 -3.97,-2.83 -1.41,-1.14 -2.54,-2.56 -3.96,-4.26 -1.13,-1.99 -1.7,-3.12 -1.7,-3.69 0,-7.38 1.7,-13.63 4.82,-19.31 3.39,-5.67 7.92,-8.8 14.15,-8.8" /><path
         id="path212"
         style="fill:#000000;fill-opacity:1;fill-rule:evenodd;stroke:none"
         d="m 2404.65,1835.98 -39.07,-79.77 h -11.88 l 38.5,78.07 h -45.02 v 10.5 h 57.47 v -8.8" /><path
         id="path214"
         style="fill:#000000;fill-opacity:1;fill-rule:evenodd;stroke:none"
         d="m 2389.08,1672.17 c 5.38,-1.7 9.63,-4.54 12.74,-8.52 3.11,-3.97 4.53,-8.8 4.53,-13.91 0,-7.95 -2.83,-14.76 -8.49,-19.87 -5.66,-5.39 -12.74,-7.67 -21.8,-7.67 -8.78,0 -16.14,2.28 -21.8,7.67 -5.66,5.4 -8.21,11.92 -8.21,19.87 0,5.11 1.41,9.65 4.25,13.63 3.11,3.97 7.36,6.81 12.74,8.8 -3.97,1.14 -7.36,3.41 -9.63,6.81 -2.55,3.7 -3.68,7.39 -3.68,11.65 0,6.53 2.27,12.2 7.08,16.46 4.53,4.54 11.04,6.82 19.25,6.82 7.92,0 14.44,-2.28 19.25,-6.82 4.81,-4.26 7.36,-9.65 7.36,-16.46 0,-4.26 -1.42,-8.24 -3.68,-11.65 -2.55,-3.12 -5.66,-5.67 -9.91,-6.81 z m -13.02,4.83 c 4.24,0 7.92,1.13 10.76,3.69 2.83,2.27 4.24,5.68 4.24,9.94 0,4.25 -1.41,7.38 -4.24,9.93 -2.84,2.27 -6.23,3.69 -10.76,3.69 -4.53,0 -7.93,-1.42 -10.76,-3.69 -2.83,-2.55 -3.96,-5.68 -3.96,-9.93 0,-4.26 1.41,-7.67 4.24,-10.23 3.12,-2.27 6.51,-3.4 10.48,-3.4 z m 0,-45.43 c 5.38,0 9.91,1.71 13.3,5.11 3.68,3.41 5.38,7.67 5.38,13.06 0,4.83 -1.7,8.8 -5.38,12.21 -3.68,3.41 -8.2,5.11 -13.3,5.11 -5.1,0 -9.35,-1.7 -13.02,-5.11 -3.68,-3.41 -5.66,-7.66 -5.66,-12.21 0,-5.67 1.69,-9.94 5.09,-13.34 3.4,-3.41 7.93,-4.83 13.59,-4.83" /><path
         id="path216"
         style="fill:#000000;fill-opacity:1;fill-rule:evenodd;stroke:none"
         d="m 2394.46,1530.79 c -1.98,-3.13 -5.1,-5.68 -8.78,-7.66 -3.96,-1.99 -7.92,-2.84 -12.17,-2.84 -7.64,0 -14.15,2.84 -19.53,8.23 -5.38,5.68 -7.93,12.77 -7.93,21.57 0,9.09 2.55,16.75 7.65,22.43 5.09,5.96 12.17,9.09 20.94,9.09 10.2,0 17.84,-3.98 23.22,-11.64 5.37,-7.67 7.93,-18.74 7.93,-33.22 0,-15.33 -2.84,-26.97 -9.06,-35.2 -5.95,-7.95 -14.16,-11.64 -24.64,-11.64 -3.68,0 -7.64,0.57 -11.89,1.42 -3.96,1.13 -7.92,2.83 -11.32,4.82 l 3.68,8.8 c 6.51,-3.69 13.02,-5.67 19.53,-5.67 7.08,0 12.46,2.55 16.43,7.95 3.68,5.11 5.66,13.06 5.94,23.56 z m -18.97,-0.85 c 1.42,0 2.83,0.28 4.53,0.56 1.42,0.57 3.12,1.14 4.53,1.99 1.42,0.85 2.55,1.99 3.97,3.12 1.13,1.14 2.26,2.56 3.68,4.27 1.13,1.98 1.69,3.12 1.69,3.68 0,6.82 -1.69,13.35 -4.81,19.31 -3.4,5.96 -8.21,9.08 -14.15,9.08 -5.38,0 -9.63,-1.98 -12.74,-5.96 -3.12,-3.69 -4.53,-8.8 -4.53,-15.33 0,-6.24 1.41,-11.36 4.81,-15.05 3.11,-3.97 7.64,-5.67 13.02,-5.67" /><path
         id="path218"
         style="fill:#000000;fill-opacity:1;fill-rule:evenodd;stroke:none"
         d="m 2350.01,1366.13 h -11.32 v 73.53 c -5.1,-5.11 -12.74,-7.67 -22.37,-7.67 v 10.51 c 11.89,0 20.39,4.25 25.48,12.77 h 8.21 v -89.14" /><path
         id="path220"
         style="fill:#000000;fill-opacity:1;fill-rule:evenodd;stroke:none"
         d="m 2440.89,1410.98 c 0,-15.89 -2.55,-27.82 -7.36,-35.48 -5.1,-7.39 -12.46,-11.08 -22.37,-10.79 -9.91,0 -17.27,3.4 -22.08,11.07 -5.1,7.67 -7.36,19.31 -7.36,35.2 0,15.05 2.26,26.41 7.36,34.07 4.81,7.38 12.17,11.36 22.08,11.36 9.91,0 17.27,-3.98 22.37,-11.36 4.81,-7.66 7.36,-19.02 7.36,-34.07 z m -29.73,-36.91 c 5.95,0 10.48,2.56 13.59,8.24 3.12,5.39 4.53,14.76 4.53,28.1 0,12.5 -1.41,21.58 -4.24,27.54 -2.84,5.68 -7.36,8.8 -13.88,8.8 -5.94,0 -10.47,-3.12 -13.59,-9.08 -2.83,-6.24 -4.24,-15.33 -4.24,-27.26 0,-12.2 1.41,-21.29 4.53,-27.25 2.83,-6.25 7.36,-9.09 13.3,-9.09" /><path
         id="path222"
         style="fill:#000000;fill-opacity:1;fill-rule:evenodd;stroke:none"
         d="m 2350.01,1233.83 h -11.32 v 73.53 c -5.1,-5.11 -12.74,-7.66 -22.37,-7.66 v 10.5 c 11.89,0 20.39,4.26 25.48,12.77 h 8.21 v -89.14" /><path
         id="path224"
         style="fill:#000000;fill-opacity:1;fill-rule:evenodd;stroke:none"
         d="m 2421.92,1233.83 h -11.32 v 73.53 c -5.1,-5.11 -12.74,-7.66 -22.37,-7.66 v 10.5 c 11.89,0 20.38,4.26 25.48,12.77 h 8.21 v -89.14" /><path
         id="path226"
         style="fill:#000000;fill-opacity:1;fill-rule:evenodd;stroke:none"
         d="m 2350.01,1108.63 h -11.32 v 73.53 c -5.1,-5.11 -12.74,-7.66 -22.37,-7.66 v 10.5 c 11.89,0 20.39,4.26 25.48,12.77 h 8.21 v -89.14" /><path
         id="path228"
         style="fill:#000000;fill-opacity:1;fill-rule:evenodd;stroke:none"
         d="m 2439.47,1108.63 h -58.6 v 9.08 c 10.48,9.94 18.97,17.89 25.76,23.85 7.08,6.25 12.17,11.64 15.29,16.75 3.4,4.83 4.81,9.94 4.81,15.05 0,4.82 -1.69,8.52 -4.81,11.35 -3.4,3.13 -7.93,4.55 -13.02,4.55 -7.36,0 -15.01,-2.28 -23.22,-6.53 l -3.11,9.08 c 8.49,4.55 17.84,7.1 27.18,7.1 8.49,0 15.29,-2.55 20.66,-7.38 5.38,-4.55 7.93,-10.79 7.93,-18.17 0,-5.68 -1.7,-11.07 -5.09,-16.47 -3.4,-5.68 -8.78,-11.64 -16.43,-18.45 l -21.79,-19.59 h 44.44 v -10.22" /><path
         id="path230"
         style="fill:#000000;fill-opacity:1;fill-rule:evenodd;stroke:none"
         d="m 2350.01,976.047 h -11.32 v 73.533 c -5.1,-5.11 -12.74,-7.67 -22.37,-7.67 v 10.51 c 11.89,0 20.39,4.26 25.48,12.77 h 8.21 v -89.143" /><path
         id="path232"
         style="fill:#000000;fill-opacity:1;fill-rule:evenodd;stroke:none"
         d="m 2422.2,1024.59 c 5.38,-1.7 9.35,-4.54 12.46,-8.51 3.11,-3.97 4.53,-8.52 4.53,-13.91 0,-7.67 -2.83,-14.482 -9.06,-19.877 -5.95,-5.395 -13.31,-7.664 -22.36,-7.664 -10.48,0 -20.11,2.269 -28.6,7.664 l 3.12,9.086 c 7.92,-5.109 16.13,-7.383 24.63,-7.383 5.66,0 10.76,1.703 14.44,5.113 3.96,3.407 5.94,7.664 5.94,12.771 0,5.68 -1.98,9.94 -5.94,13.06 -3.68,2.84 -9.63,4.26 -16.99,4.26 h -2.83 v 9.66 c 15.57,0 23.21,4.53 23.21,13.62 0,4.26 -1.7,7.66 -4.81,10.22 -3.12,2.56 -7.64,3.98 -13.02,3.98 -7.08,0 -14.44,-2.27 -21.52,-6.54 l -3.11,9.09 c 8.21,4.54 16.42,7.1 25.19,7.1 8.78,0 15.86,-2.27 21.23,-6.53 5.1,-4.26 7.65,-10.22 7.65,-17.32 0,-8.23 -4.81,-13.91 -14.16,-17.6 v -0.29" /><path
         id="path234"
         style="fill:#000000;fill-opacity:1;fill-rule:evenodd;stroke:none"
         d="m 2350.01,851.133 h -11.32 v 73.531 c -5.1,-5.113 -12.74,-7.668 -22.37,-7.668 V 927.5 c 11.89,0 20.39,4.262 25.48,12.777 h 8.21 v -89.144" /><path
         id="path236"
         style="fill:#000000;fill-opacity:1;fill-rule:evenodd;stroke:none"
         d="m 2442.87,870.438 h -13.02 v -19.305 h -11.33 v 19.305 h -39.35 v 10.503 l 41.33,59.336 h 9.35 v -59.336 h 13.02 z m -24.35,10.503 v 40.883 l -28.31,-40.883 h 28.31" /><path
         id="path238"
         style="fill:#000000;fill-opacity:1;fill-rule:evenodd;stroke:none"
         d="m 2350.01,718.551 h -11.32 v 73.531 c -5.1,-5.109 -12.74,-7.668 -22.37,-7.668 v 10.508 c 11.89,0 20.39,4.258 25.48,12.773 h 8.21 v -89.144" /><path
         id="path240"
         style="fill:#000000;fill-opacity:1;fill-rule:evenodd;stroke:none"
         d="m 2396.44,771.926 c 3.97,1.418 7.93,1.984 12.17,1.984 9.63,0 17.27,-2.555 22.94,-7.664 5.66,-5.109 8.49,-11.922 8.49,-20.441 0,-8.516 -2.83,-15.614 -8.49,-21.008 -5.95,-5.395 -13.59,-7.664 -22.94,-7.664 -10.47,0 -19.81,2.269 -28.59,7.664 l 3.12,9.086 c 7.92,-5.113 16.13,-7.383 24.63,-7.383 5.94,0 10.75,1.703 14.72,5.395 3.68,3.406 5.66,8.234 5.66,13.91 0,5.679 -1.7,9.937 -5.66,13.343 -3.97,3.407 -8.78,5.11 -14.72,5.11 -4.25,0 -7.93,-0.852 -11.61,-2.27 l -9.63,1.989 v 43.152 h 49.83 v -10.504 h -39.92 v -24.699" /><path
         id="path242"
         style="fill:#000000;fill-opacity:1;fill-rule:evenodd;stroke:none"
         d="m 2350.01,593.637 h -11.32 v 73.527 c -5.1,-5.109 -12.74,-7.664 -22.37,-7.664 v 10.504 c 11.89,0 20.39,4.258 25.48,12.777 h 8.21 v -89.144" /><path
         id="path244"
         style="fill:#000000;fill-opacity:1;fill-rule:evenodd;stroke:none"
         d="m 2393.61,642.465 c 2.27,3.125 5.1,5.68 8.78,7.383 3.96,1.988 7.92,2.84 12.17,2.84 7.93,0 14.44,-2.555 19.53,-8.235 5.38,-5.394 7.93,-12.492 7.93,-21.008 0,-9.371 -2.55,-17.035 -7.64,-22.711 -4.82,-5.964 -11.89,-8.519 -20.95,-8.519 -10.2,0 -17.84,3.406 -23.22,11.074 -5.37,7.664 -7.92,18.734 -7.92,33.215 0,15.332 2.83,27.254 9.06,35.203 5.94,7.949 14.15,12.207 24.91,12.207 7.64,0 14.72,-2.269 21.23,-6.246 l -3.4,-9.082 c -5.94,3.687 -11.89,5.676 -17.83,5.676 -7.08,0 -12.74,-2.84 -16.42,-7.949 -3.96,-5.395 -5.95,-13.344 -6.23,-23.848 z m 19.53,-40.879 c 5.66,0 9.91,1.984 12.74,5.676 3.12,3.691 4.53,8.801 4.53,15.332 0,6.246 -1.41,11.07 -4.53,15.047 -3.39,3.691 -7.64,5.394 -13.3,5.394 -1.42,0 -2.83,0 -4.53,-0.57 -1.42,-0.567 -2.83,-1.133 -4.25,-1.985 -1.41,-0.855 -2.83,-1.707 -3.96,-2.839 -1.42,-1.137 -2.55,-2.555 -3.96,-4.258 -1.14,-1.988 -1.7,-3.125 -1.7,-3.692 0,-7.382 1.7,-13.628 4.81,-19.304 3.4,-5.68 7.93,-8.801 14.15,-8.801" /><path
         id="path246"
         style="fill:#000000;fill-opacity:1;fill-rule:evenodd;stroke:none"
         d="m 2350.01,461.055 h -11.32 v 73.527 c -5.1,-5.109 -12.74,-7.664 -22.37,-7.664 v 10.504 c 11.89,0 20.39,4.258 25.48,12.777 h 8.21 v -89.144" /><path
         id="path248"
         style="fill:#000000;fill-opacity:1;fill-rule:evenodd;stroke:none"
         d="m 2439.75,540.828 -39.06,-79.773 h -11.89 l 38.5,78.07 h -45.01 v 10.504 h 57.46 v -8.801" /><path
         id="path250"
         style="fill:#000000;fill-opacity:1;fill-rule:evenodd;stroke:none"
         d="m 2350.01,328.758 h -11.32 v 73.527 c -5.1,-5.109 -12.74,-7.664 -22.37,-7.664 v 10.504 c 11.89,0 20.39,4.258 25.48,12.777 h 8.21 v -89.144" /><path
         id="path252"
         style="fill:#000000;fill-opacity:1;fill-rule:evenodd;stroke:none"
         d="m 2424.18,377.305 c 5.38,-1.703 9.63,-4.543 12.75,-8.52 3.11,-3.972 4.52,-8.801 4.52,-13.91 0,-7.949 -2.82,-14.762 -8.49,-19.871 -5.66,-5.395 -12.74,-7.668 -21.8,-7.668 -8.77,0 -16.13,2.273 -21.8,7.668 -5.66,5.391 -8.21,11.922 -8.21,19.871 0,5.109 1.42,9.652 4.25,13.629 3.12,3.973 7.36,6.812 12.74,8.801 -3.96,1.133 -7.36,3.406 -9.62,6.812 -2.55,3.692 -3.68,7.383 -3.68,11.641 0,6.527 2.26,12.207 7.07,16.465 4.53,4.543 11.04,6.812 19.25,6.812 7.93,0 14.44,-2.269 19.25,-6.812 4.82,-4.258 7.36,-9.653 7.36,-16.465 0,-4.258 -1.41,-8.235 -3.68,-11.641 -2.54,-3.125 -5.66,-5.679 -9.91,-6.812 z m -13.02,4.824 c 4.25,0 7.93,1.137 10.76,3.691 2.83,2.27 4.25,5.68 4.25,9.938 0,4.258 -1.42,7.379 -4.25,9.933 -2.83,2.274 -6.23,3.692 -10.76,3.692 -4.53,0 -7.93,-1.418 -10.75,-3.692 -2.84,-2.554 -3.97,-5.675 -3.97,-9.933 0,-4.258 1.42,-7.668 4.25,-10.223 3.11,-2.269 6.51,-3.406 10.47,-3.406 z m 0,-45.422 c 5.38,0 9.91,1.703 13.31,5.109 3.68,3.407 5.38,7.664 5.38,13.059 0,4.828 -1.7,8.801 -5.38,12.207 -3.68,3.406 -8.21,5.109 -13.31,5.109 -5.09,0 -9.34,-1.703 -13.02,-5.109 -3.68,-3.406 -5.66,-7.664 -5.66,-12.207 0,-5.68 1.7,-9.937 5.09,-13.344 3.4,-3.406 7.93,-4.824 13.59,-4.824" /><path
         id="path254"
         style="fill:#000000;fill-opacity:1;fill-rule:evenodd;stroke:none"
         d="m 2350.01,203.555 h -11.32 v 73.531 c -5.1,-5.109 -12.74,-7.664 -22.37,-7.664 v 10.504 c 11.89,0 20.39,4.258 25.48,12.773 h 8.21 v -89.144" /><path
         id="path256"
         style="fill:#000000;fill-opacity:1;fill-rule:evenodd;stroke:none"
         d="m 2429.56,243.02 c -1.98,-3.125 -5.09,-5.68 -8.77,-7.668 -3.97,-1.985 -7.93,-2.836 -12.18,-2.836 -7.64,0 -14.15,2.836 -19.53,8.23 -5.38,5.68 -7.93,12.777 -7.93,21.578 0,9.086 2.55,16.75 7.65,22.426 5.09,5.965 12.17,9.086 20.95,9.086 10.19,0 17.83,-3.973 23.21,-11.641 5.38,-7.664 7.93,-18.734 7.93,-33.215 0,-15.332 -2.83,-26.968 -9.06,-35.203 -5.95,-7.949 -14.15,-11.64 -24.63,-11.64 -3.68,0 -7.65,0.566 -11.89,1.418 -3.96,1.136 -7.93,2.84 -11.33,4.828 l 3.68,8.801 c 6.52,-3.692 13.03,-5.68 19.54,-5.68 7.08,0 12.46,2.559 16.42,7.949 3.68,5.113 5.66,13.063 5.94,23.567 z m -18.96,-0.852 c 1.41,0 2.83,0.281 4.53,0.566 1.41,0.567 3.11,1.137 4.53,1.989 1.41,0.851 2.54,1.988 3.96,3.121 1.13,1.136 2.26,2.554 3.68,4.258 1.13,1.988 1.7,3.125 1.7,3.691 0,6.816 -1.7,13.344 -4.82,19.305 -3.39,5.965 -8.2,9.086 -14.15,9.086 -5.38,0 -9.62,-1.989 -12.74,-5.961 -3.11,-3.692 -4.53,-8.801 -4.53,-15.332 0,-6.246 1.42,-11.356 4.81,-15.047 3.12,-3.973 7.65,-5.676 13.03,-5.676" /><path
         id="path258"
         style="fill:#000000;fill-opacity:1;fill-rule:evenodd;stroke:none"
         d="m 2367.57,71.2578 h -58.61 v 9.086 c 10.48,9.9375 18.97,17.8867 25.77,23.8472 7.07,6.247 12.17,11.641 15.28,16.75 3.4,4.829 4.81,9.938 4.81,15.047 0,4.828 -1.69,8.516 -4.81,11.356 -3.39,3.125 -7.92,4.543 -13.02,4.543 -7.36,0 -15.01,-2.27 -23.21,-6.532 l -3.12,9.086 c 8.5,4.543 17.84,7.098 27.18,7.098 8.49,0 15.29,-2.555 20.67,-7.383 5.38,-4.539 7.92,-10.785 7.92,-18.168 0,-5.679 -1.7,-11.07 -5.09,-16.465 -3.4,-5.679 -8.78,-11.64 -16.42,-18.453 l -21.8,-19.5895 h 44.45 V 71.2578" /><path
         id="path260"
         style="fill:#000000;fill-opacity:1;fill-rule:evenodd;stroke:none"
         d="m 2440.89,116.117 c 0,-15.898 -2.55,-27.824 -7.36,-35.4881 -5.1,-7.3828 -12.46,-11.0742 -22.37,-10.7891 -9.91,0 -17.27,3.4063 -22.08,11.0704 -5.1,7.6679 -7.36,19.3088 -7.36,35.2068 0,15.043 2.26,26.403 7.36,34.067 4.81,7.382 12.17,11.355 22.08,11.355 9.91,0 17.27,-3.973 22.37,-11.355 4.81,-7.664 7.36,-19.024 7.36,-34.067 z m -29.73,-36.91 c 5.95,0 10.48,2.5547 13.59,8.2344 3.12,5.3945 4.53,14.7616 4.53,28.1056 0,12.492 -1.41,21.578 -4.24,27.539 -2.84,5.68 -7.36,8.801 -13.88,8.801 -5.94,0 -10.47,-3.121 -13.59,-9.086 -2.83,-6.246 -4.24,-15.328 -4.24,-27.254 0,-12.207 1.41,-21.2931 4.53,-27.254 2.83,-6.2461 7.36,-9.086 13.3,-9.086" /><path
         id="path262"
         style="fill:#000000;fill-opacity:1;fill-rule:evenodd;stroke:none"
         d="m 3253.67,2843.54 c 6.51,6.25 13.59,9.66 21.23,9.66 5.95,0 10.48,-1.71 14.15,-5.11 3.4,-3.41 5.1,-7.95 5.1,-13.92 0,-2.27 -0.85,-7.95 -2.83,-17.03 l -6.79,-30.94 h -17.27 l 5.94,27.53 c 1.7,8.52 2.84,13.06 2.84,13.91 0.28,1.14 0.28,2.27 0.28,3.41 0,2.27 -0.85,3.98 -1.98,5.4 -1.42,1.41 -3.4,1.98 -5.95,1.98 -5.94,0 -11.89,-3.12 -17.84,-9.65 l -9.05,-42.58 h -17.56 l 13.88,65.29 h 17.26 l -1.41,-7.95" /><path
         id="path264"
         style="fill:#000000;fill-opacity:1;fill-rule:evenodd;stroke:none"
         d="m 3360.96,2791.59 c -8.49,-4.83 -17.55,-6.82 -27.17,-6.82 -9.06,0 -16.14,1.99 -21.8,7.1 -5.67,5.11 -8.5,11.64 -8.5,19.88 0,11.35 3.97,21 11.33,28.95 7.36,8.24 16.7,12.5 27.18,12.5 7.92,0 14.15,-2.27 18.96,-6.82 4.53,-4.54 7.08,-10.5 7.08,-18.17 0,-1.99 -0.56,-6.53 -1.7,-13.34 h -44.45 c 0,-5.68 1.14,-9.66 3.4,-12.21 2.27,-2.55 5.66,-3.69 10.48,-3.69 6.79,0 14.15,1.99 22.64,6.24 z m -9.34,34.92 c 0,0.85 0.28,1.42 0.28,1.7 0,3.69 -1.13,6.82 -2.83,9.09 -1.69,2.27 -4.24,3.4 -7.64,3.4 -3.4,0 -6.79,-1.41 -9.91,-3.97 -3.11,-2.56 -5.38,-5.96 -6.79,-10.22 h 26.89" /><path
         id="path266"
         style="fill:#000000;fill-opacity:1;fill-rule:evenodd;stroke:none"
         d="m 3400.31,2880.45 c 2.83,0 5.1,-1.14 7.08,-3.12 1.99,-1.99 3.11,-4.26 3.11,-7.1 0,-2.55 -1.12,-5.11 -3.11,-7.1 -1.98,-1.99 -4.25,-2.84 -7.08,-2.84 -2.83,0 -5.09,0.85 -7.07,2.84 -1.99,1.99 -2.83,4.55 -2.83,7.1 0,2.84 0.84,5.11 2.83,7.1 1.98,1.98 4.24,3.12 7.07,3.12 z m 4.53,-28.96 -13.59,-65.29 h -17.55 l 13.87,65.29 h 17.27" /><path
         id="path268"
         style="fill:#000000;fill-opacity:1;fill-rule:evenodd;stroke:none"
         d="m 3483.83,2851.49 -13.03,-62.74 c -4.24,-19.3 -16.98,-29.24 -38.21,-29.24 -11.04,0 -20.39,2.27 -27.75,7.1 l 7.08,13.05 c 6.51,-3.97 13.31,-5.96 20.67,-5.96 5.37,0 9.91,1.14 13.59,3.41 3.68,2.55 6.23,7.38 7.92,15.05 -2.26,-2.27 -5.09,-3.98 -8.77,-5.4 -3.68,-1.13 -7.08,-1.99 -10.19,-1.99 -7.65,0 -13.59,1.99 -17.56,6.53 -4.24,4.55 -6.51,11.08 -6.51,19.59 0,11.36 3.68,21.3 10.48,29.81 7.08,8.24 15.85,12.5 26.04,12.5 7.93,0 13.87,-2.56 17.84,-7.67 l 1.13,5.96 z m -21.52,-20.44 c -3.11,4.83 -7.36,7.38 -13.59,7.38 -5.38,0 -9.9,-2.55 -13.58,-7.95 -3.68,-5.11 -5.67,-11.64 -5.67,-19.02 0,-3.97 1.14,-7.1 2.83,-9.08 1.99,-2.27 4.25,-3.13 7.36,-3.13 6.23,0 12.18,2.56 17.56,7.95 l 5.09,23.85" /><path
         id="path270"
         style="fill:#000000;fill-opacity:1;fill-rule:evenodd;stroke:none"
         d="m 3517.23,2843.54 c 6.52,6.25 13.59,9.66 21.24,9.66 5.94,0 10.47,-1.71 13.87,-5.11 3.68,-3.41 5.38,-7.95 5.38,-13.92 0,-2.27 -0.85,-7.95 -2.83,-17.03 l -6.8,-30.94 h -17.27 l 5.95,27.53 c 1.7,8.52 2.83,13.06 2.83,13.91 0.28,1.14 0.28,2.27 0.28,3.41 0,4.83 -2.54,7.38 -7.92,7.38 -5.95,0 -11.89,-3.12 -17.84,-9.65 l -9.06,-42.58 h -17.55 l 19.81,93.11 h 17.27 l -7.36,-35.77" /><path
         id="path272"
         style="fill:#000000;fill-opacity:1;fill-rule:evenodd;stroke:none"
         d="m 3595.65,2845.53 c 2.27,1.99 5.1,3.97 8.78,5.4 3.68,1.41 7.08,2.27 10.19,2.27 7.36,0 13.31,-2.56 17.55,-7.1 4.25,-4.55 6.23,-11.07 6.23,-19.31 0,-11.64 -3.4,-21.58 -10.47,-29.81 -7.08,-8.52 -15.57,-12.21 -25.77,-12.21 -8.21,0 -14.15,2.28 -17.83,7.39 l -1.13,-5.96 h -17.56 l 19.82,93.11 h 17.27 z m -8.2,-38.89 c 2.82,-4.83 7.35,-7.39 13.3,-7.39 5.38,0 9.91,2.56 13.87,7.67 3.68,5.39 5.66,11.64 5.66,19.02 0,3.97 -1.13,7.1 -2.83,9.09 -1.98,2.27 -4.24,3.4 -7.36,3.4 -6.23,0 -12.17,-2.55 -17.55,-7.95 l -5.09,-23.84" /><path
         id="path274"
         style="fill:#000000;fill-opacity:1;fill-rule:evenodd;stroke:none"
         d="m 3684.55,2853.2 c 9.62,0 16.98,-2.56 22.93,-7.39 5.66,-5.11 8.49,-11.64 8.49,-20.15 0,-12.78 -3.96,-22.71 -11.89,-30.1 -7.64,-7.38 -17.27,-10.79 -28.88,-10.79 -9.06,0 -16.41,1.99 -21.79,6.82 -5.38,4.82 -8.21,11.64 -8.21,20.44 0,11.64 3.96,21.58 11.6,29.24 7.93,7.95 16.99,11.93 27.75,11.93 z m -8.78,-53.95 c 6.23,0 11.61,2.56 15.57,7.67 4.25,5.39 6.23,11.36 6.23,17.88 0,4.26 -1.13,7.39 -3.4,9.94 -2.54,2.27 -5.66,3.41 -9.91,3.41 -5.66,0 -10.76,-2.56 -14.72,-7.95 -3.96,-5.11 -5.94,-11.07 -5.94,-17.6 0,-4.26 1.13,-7.39 3.4,-9.94 2.26,-2.27 5.09,-3.41 8.77,-3.41" /><path
         id="path276"
         style="fill:#000000;fill-opacity:1;fill-rule:evenodd;stroke:none"
         d="m 3776.55,2850.36 -6.51,-15.62 c -1.41,1.14 -3.11,1.71 -5.09,1.71 -3.97,0 -8.5,-2.56 -13.31,-7.95 -3.39,-3.98 -5.38,-7.67 -6.23,-10.79 l -6.51,-31.51 h -17.55 l 13.87,65.29 h 17.27 l -2.55,-13.06 c 3.4,5.4 6.51,9.09 9.35,11.36 3.11,2.27 6.22,3.41 9.91,3.41 3.11,0 5.66,-1.14 7.35,-2.84" /></g></g></svg>