<?xml version="1.0" encoding="UTF-8" standalone="no"?>
<svg
   xmlns:dc="http://purl.org/dc/elements/1.1/"
   xmlns:cc="http://creativecommons.org/ns#"
   xmlns:rdf="http://www.w3.org/1999/02/22-rdf-syntax-ns#"
   xmlns:svg="http://www.w3.org/2000/svg"
   xmlns="http://www.w3.org/2000/svg"
   viewBox="0 0 224.8 193.32001"
   height="193.32001"
   width="224.8"
   xml:space="preserve"
   id="svg2"
   version="1.1"><metadata
     id="metadata8"><rdf:RDF><cc:Work
         rdf:about=""><dc:format>image/svg+xml</dc:format><dc:type
           rdf:resource="http://purl.org/dc/dcmitype/StillImage" /></cc:Work></rdf:RDF></metadata><defs
     id="defs6" /><g
     transform="matrix(1.3333333,0,0,-1.3333333,0,193.32)"
     id="g10"><g
       transform="scale(0.1)"
       id="g12"><path
         id="path14"
         style="fill:#000000;fill-opacity:1;fill-rule:evenodd;stroke:none"
         d="m 1154.74,1366.83 0.64,4.16 10.88,43.36 c 1.44,5.6 1.76,6.08 8.64,6.08 h 15.2 c 13.28,0 21.76,-4.32 21.76,-15.36 0,-6.24 -3.2,-19.84 -9.44,-25.6 -8,-7.2 -17.6,-8.48 -24.48,-8.48 h -22.56 l -0.64,-4.16 h 27.2 c 22.56,0 44.64,16.64 44.64,34.4 0,12.32 -10.4,24.16 -31.36,24.16 h -51.68 c -3.04,0 -4.64,0 -4.64,-3.04 0,-1.92 1.28,-1.92 4.48,-1.92 2.08,0 4.96,-0.16 6.88,-0.32 2.56,-0.32 3.52,-0.8 3.52,-2.56 0,-0.64 -0.16,-1.12 -0.64,-3.04 l -21.28,-85.6 c -1.6,-6.24 -1.92,-7.52 -14.56,-7.52 -2.72,0 -4.48,0 -4.48,-3.04 0,-1.92 1.92,-1.92 2.4,-1.92 4.48,0 15.84,0.48 20.32,0.48 3.36,0 6.72,-0.16 10.08,-0.16 3.52,0 7.04,-0.32 10.4,-0.32 1.12,0 3.2,0 3.2,3.2 0,1.76 -1.44,1.76 -4.48,1.76 -5.92,0 -10.4,0 -10.4,2.88 0,0.96 0.32,1.76 0.48,2.72 l 9.92,39.84" /><path
         id="path16"
         style="fill:none;stroke:#000000;stroke-width:7.5;stroke-linecap:butt;stroke-linejoin:miter;stroke-miterlimit:10;stroke-dasharray:none;stroke-opacity:1"
         d="m 1154.74,1366.83 0.64,4.16 10.88,43.36 c 1.44,5.6 1.76,6.08 8.64,6.08 h 15.2 c 13.28,0 21.76,-4.32 21.76,-15.36 0,-6.24 -3.2,-19.84 -9.44,-25.6 -8,-7.2 -17.6,-8.48 -24.48,-8.48 h -22.56 l -0.64,-4.16 h 27.2 c 22.56,0 44.64,16.64 44.64,34.4 0,12.32 -10.4,24.16 -31.36,24.16 h -51.68 c -3.04,0 -4.64,0 -4.64,-3.04 0,-1.92 1.28,-1.92 4.48,-1.92 2.08,0 4.96,-0.16 6.88,-0.32 2.56,-0.32 3.52,-0.8 3.52,-2.56 0,-0.64 -0.16,-1.12 -0.64,-3.04 l -21.28,-85.6 c -1.6,-6.24 -1.92,-7.52 -14.56,-7.52 -2.72,0 -4.48,0 -4.48,-3.04 0,-1.92 1.92,-1.92 2.4,-1.92 4.48,0 15.84,0.48 20.32,0.48 3.36,0 6.72,-0.16 10.08,-0.16 3.52,0 7.04,-0.32 10.4,-0.32 1.12,0 3.2,0 3.2,3.2 0,1.76 -1.44,1.76 -4.48,1.76 -5.92,0 -10.4,0 -10.4,2.88 0,0.96 0.32,1.76 0.48,2.72 z" /><path
         id="path18"
         style="fill:#000000;fill-opacity:1;fill-rule:evenodd;stroke:none"
         d="m 1246.26,1363.63 v 0.96 h -0.16 v 0.96 l -0.16,0.16 v 0.32 h -0.16 v 0.16 h -0.16 v 0.16 h -0.16 v 0.16 h -0.48 l -0.16,0.16 h -0.16 -0.32 -0.16 -0.48 -0.64 -0.16 c -7.2,-7.04 -17.28,-7.2 -21.92,-7.2 v -4 c 2.72,0 10.08,0 16.16,3.2 v -56.96 c 0,-3.68 0,-5.12 -11.2,-5.12 h -4.16 v -4 c 19.84,0 1.92,0.16 15.68,0.48 4.16,0 7.68,0 21.76,-0.32 l 2.4,3.84 h -4.32 c -11.04,0 -11.04,1.44 -11.04,5.12 v 61.92" /><path
         id="path20"
         style="fill:none;stroke:#000000;stroke-width:7.5;stroke-linecap:butt;stroke-linejoin:miter;stroke-miterlimit:10;stroke-dasharray:none;stroke-opacity:1"
         d="m 1246.26,1363.63 v 0.96 h -0.16 v 0.96 l -0.16,0.16 v 0.32 h -0.16 v 0.16 h -0.16 v 0.16 h -0.16 v 0.16 h -0.48 l -0.16,0.16 h -0.16 -0.32 -0.16 -0.48 -0.64 -0.16 c -7.2,-7.04 -17.28,-7.2 -21.92,-7.2 v -4 c 2.72,0 10.08,0 16.16,3.2 v -56.96 c 0,-3.68 0,-5.12 -11.2,-5.12 h -4.16 v -4 c 19.84,0 1.92,0.16 15.68,0.48 4.16,0 7.68,0 21.76,-0.32 l 2.4,3.84 h -4.32 c -11.04,0 -11.04,1.44 -11.04,5.12 z" /><path
         id="path22"
         style="fill:#000000;fill-opacity:1;fill-rule:evenodd;stroke:none"
         d="m 471.633,1391.45 0.64,4.16 10.879,43.36 c 1.442,5.6 1.762,6.08 8.641,6.08 h 15.203 c 13.277,0 21.758,-4.32 21.758,-15.36 0,-6.24 -3.199,-19.84 -9.441,-25.6 -8,-7.2 -17.598,-8.48 -24.477,-8.48 h -22.563 l -0.64,-4.16 h 27.203 c 22.559,0 44.637,16.64 44.637,34.4 0,12.32 -10.399,24.16 -31.36,24.16 h -51.679 c -3.039,0 -4.641,0 -4.641,-3.04 0,-1.92 1.281,-1.92 4.48,-1.92 2.082,0 4.961,-0.16 6.879,-0.32 2.563,-0.32 3.524,-0.8 3.524,-2.56 0,-0.64 -0.16,-1.12 -0.641,-3.04 l -21.281,-85.6 c -1.602,-6.24 -1.918,-7.52 -14.559,-7.52 -2.722,0 -4.48,0 -4.48,-3.04 0,-1.92 1.918,-1.92 2.398,-1.92 4.481,0 15.84,0.48 20.321,0.48 3.359,0 6.718,-0.16 10.082,-0.16 3.519,0 7.039,-0.32 10.398,-0.32 1.121,0 3.199,0 3.199,3.2 0,1.76 -1.437,1.76 -4.48,1.76 -5.918,0 -10.399,0 -10.399,2.88 0,0.96 0.321,1.76 0.481,2.72 l 9.918,39.84" /><path
         id="path24"
         style="fill:none;stroke:#000000;stroke-width:7.5;stroke-linecap:butt;stroke-linejoin:miter;stroke-miterlimit:10;stroke-dasharray:none;stroke-opacity:1"
         d="m 471.633,1391.45 0.64,4.16 10.879,43.36 c 1.442,5.6 1.762,6.08 8.641,6.08 h 15.203 c 13.277,0 21.758,-4.32 21.758,-15.36 0,-6.24 -3.199,-19.84 -9.441,-25.6 -8,-7.2 -17.598,-8.48 -24.477,-8.48 h -22.563 l -0.64,-4.16 h 27.203 c 22.559,0 44.637,16.64 44.637,34.4 0,12.32 -10.399,24.16 -31.36,24.16 h -51.679 c -3.039,0 -4.641,0 -4.641,-3.04 0,-1.92 1.281,-1.92 4.48,-1.92 2.082,0 4.961,-0.16 6.879,-0.32 2.563,-0.32 3.524,-0.8 3.524,-2.56 0,-0.64 -0.16,-1.12 -0.641,-3.04 l -21.281,-85.6 c -1.602,-6.24 -1.918,-7.52 -14.559,-7.52 -2.722,0 -4.48,0 -4.48,-3.04 0,-1.92 1.918,-1.92 2.398,-1.92 4.481,0 15.84,0.48 20.321,0.48 3.359,0 6.718,-0.16 10.082,-0.16 3.519,0 7.039,-0.32 10.398,-0.32 1.121,0 3.199,0 3.199,3.2 0,1.76 -1.437,1.76 -4.48,1.76 -5.918,0 -10.399,0 -10.399,2.88 0,0.96 0.321,1.76 0.481,2.72 z" /><path
         id="path26"
         style="fill:#000000;fill-opacity:1;fill-rule:evenodd;stroke:none"
         d="m 582.035,1337.53 h -3.68 c -0.48,-2.4 -1.601,-9.12 -3.042,-10.08 -0.797,-0.8 -9.438,-0.8 -11.04,-0.8 h -20.48 c 11.68,10.4 15.68,13.6 22.242,18.72 8.32,6.72 16,13.6 16,24.16 0,13.44 -11.84,21.76 -26.082,21.76 -13.918,0 -23.199,-9.76 -23.199,-20 0,-5.6 4.801,-6.24 5.922,-6.24 2.719,0 5.918,1.92 5.918,5.92 0,2.08 -0.801,5.92 -6.559,5.92 3.36,8 11.039,10.4 16.32,10.4 11.04,0 16.958,-8.64 16.958,-17.76 0,-9.76 -7.04,-17.44 -10.559,-21.44 l -26.879,-26.56 c -1.121,-0.96 -1.121,-1.12 -1.121,-4.32 h 45.922 l 3.359,20.32" /><path
         id="path28"
         style="fill:none;stroke:#000000;stroke-width:7.5;stroke-linecap:butt;stroke-linejoin:miter;stroke-miterlimit:10;stroke-dasharray:none;stroke-opacity:1"
         d="m 582.035,1337.53 h -3.68 c -0.48,-2.4 -1.601,-9.12 -3.042,-10.08 -0.797,-0.8 -9.438,-0.8 -11.04,-0.8 h -20.48 c 11.68,10.4 15.68,13.6 22.242,18.72 8.32,6.72 16,13.6 16,24.16 0,13.44 -11.84,21.76 -26.082,21.76 -13.918,0 -23.199,-9.76 -23.199,-20 0,-5.6 4.801,-6.24 5.922,-6.24 2.719,0 5.918,1.92 5.918,5.92 0,2.08 -0.801,5.92 -6.559,5.92 3.36,8 11.039,10.4 16.32,10.4 11.04,0 16.958,-8.64 16.958,-17.76 0,-9.76 -7.04,-17.44 -10.559,-21.44 l -26.879,-26.56 c -1.121,-0.96 -1.121,-1.12 -1.121,-4.32 h 45.922 z" /><path
         id="path30"
         style="fill:#000000;fill-opacity:1;fill-rule:evenodd;stroke:none"
         d="m 41.9219,1095.45 0.6367,4.16 10.8828,43.36 c 1.4375,5.6 1.7578,6.08 8.6406,6.08 h 15.1993 c 13.2773,0 21.7578,-4.32 21.7578,-15.36 0,-6.24 -3.1993,-19.84 -9.4375,-25.6 -8,-7.2 -17.6016,-8.48 -24.4805,-8.48 H 42.5586 l -0.6367,-4.16 h 27.1992 c 22.5586,0 44.6409,16.64 44.6409,34.4 0,12.32 -10.403,24.16 -31.3636,24.16 H 30.7188 c -3.0391,0 -4.6368,0 -4.6368,-3.04 0,-1.92 1.2774,-1.92 4.4766,-1.92 2.082,0 4.9609,-0.16 6.8828,-0.32 2.5586,-0.32 3.5195,-0.8 3.5195,-2.56 0,-0.64 -0.1601,-1.12 -0.6406,-3.04 l -21.2812,-85.6 c -1.5977,-6.24 -1.918,-7.52 -14.55863,-7.52 -2.71875,0 -4.48047,0 -4.48047,-3.04 0,-1.92 1.92188,-1.92 2.39844,-1.92 4.48047,0 15.83986,0.48 20.32036,0.48 3.3632,0 6.7226,-0.16 10.082,-0.16 3.5195,0 7.039,-0.32 10.3984,-0.32 1.1211,0 3.1992,0 3.1992,3.2 0,1.76 -1.4375,1.76 -4.4765,1.76 -5.9219,0 -10.4024,0 -10.4024,2.88 0,0.96 0.3203,1.76 0.4805,2.72 l 9.9219,39.84" /><path
         id="path32"
         style="fill:none;stroke:#000000;stroke-width:7.5;stroke-linecap:butt;stroke-linejoin:miter;stroke-miterlimit:10;stroke-dasharray:none;stroke-opacity:1"
         d="m 41.9219,1095.45 0.6367,4.16 10.8828,43.36 c 1.4375,5.6 1.7578,6.08 8.6406,6.08 h 15.1993 c 13.2773,0 21.7578,-4.32 21.7578,-15.36 0,-6.24 -3.1993,-19.84 -9.4375,-25.6 -8,-7.2 -17.6016,-8.48 -24.4805,-8.48 H 42.5586 l -0.6367,-4.16 h 27.1992 c 22.5586,0 44.6409,16.64 44.6409,34.4 0,12.32 -10.403,24.16 -31.3636,24.16 H 30.7188 c -3.0391,0 -4.6368,0 -4.6368,-3.04 0,-1.92 1.2774,-1.92 4.4766,-1.92 2.082,0 4.9609,-0.16 6.8828,-0.32 2.5586,-0.32 3.5195,-0.8 3.5195,-2.56 0,-0.64 -0.1601,-1.12 -0.6406,-3.04 l -21.2812,-85.6 c -1.5977,-6.24 -1.918,-7.52 -14.55863,-7.52 -2.71875,0 -4.48047,0 -4.48047,-3.04 0,-1.92 1.92188,-1.92 2.39844,-1.92 4.48047,0 15.83986,0.48 20.32036,0.48 3.3632,0 6.7226,-0.16 10.082,-0.16 3.5195,0 7.039,-0.32 10.3984,-0.32 1.1211,0 3.1992,0 3.1992,3.2 0,1.76 -1.4375,1.76 -4.4765,1.76 -5.9219,0 -10.4024,0 -10.4024,2.88 0,0.96 0.3203,1.76 0.4805,2.72 z" /><path
         id="path34"
         style="fill:#000000;fill-opacity:1;fill-rule:evenodd;stroke:none"
         d="m 126.398,1058.49 h 0.801 l 0.801,-0.16 h 0.801 l 0.801,-0.16 0.796,-0.16 0.641,-0.16 0.801,-0.16 0.64,-0.32 0.641,-0.32 0.641,-0.32 0.636,-0.32 0.641,-0.48 0.481,-0.48 0.64,-0.48 0.481,-0.48 0.48,-0.48 0.641,-0.64 0.32,-0.64 0.477,-0.64 0.48,-0.64 0.32,-0.8 0.321,-0.64 0.32,-0.8 0.32,-0.8 0.16,-0.96 0.321,-0.8 0.16,-0.96 0.16,-0.96 0.16,-0.96 v -1.12 l 0.16,-1.12 v -0.96 c 0,-13.92 -8,-18.08 -14.562,-18.08 -4.481,0 -14.238,1.28 -18.879,7.84 5.121,0.32 6.398,4 6.398,6.24 0,3.68 -2.718,6.24 -6.078,6.24 -3.199,0 -6.238,-1.92 -6.238,-6.56 0,-10.4 11.52,-17.28 25.117,-17.28 15.36,0 26.082,10.4 26.082,21.6 0,8.64 -7.043,17.28 -19.359,20 11.68,4.16 16,12.48 16,19.36 0,8.8 -10.242,15.36 -22.563,15.36 -12.32,0 -21.918,-6.08 -21.918,-14.88 0,-3.84 2.559,-5.92 5.918,-5.92 3.36,0 5.602,2.56 5.602,5.6 0,3.2 -2.242,5.6 -5.602,5.76 3.84,4.96 11.52,6.24 15.68,6.24 4.961,0 12,-2.4 12,-12.16 0,-4.64 -1.598,-9.92 -4.48,-13.28 -3.68,-4.32 -6.719,-4.48 -12.321,-4.8 -2.879,-0.16 -3.039,-0.16 -3.519,-0.32 -0.321,0 -1.117,-0.32 -1.117,-1.44 0,-1.6 0.957,-1.6 2.878,-1.6 h 5.918" /><path
         id="path36"
         style="fill:none;stroke:#000000;stroke-width:7.5;stroke-linecap:butt;stroke-linejoin:miter;stroke-miterlimit:10;stroke-dasharray:none;stroke-opacity:1"
         d="m 126.398,1058.49 h 0.801 l 0.801,-0.16 h 0.801 l 0.801,-0.16 0.796,-0.16 0.641,-0.16 0.801,-0.16 0.64,-0.32 0.641,-0.32 0.641,-0.32 0.636,-0.32 0.641,-0.48 0.481,-0.48 0.64,-0.48 0.481,-0.48 0.48,-0.48 0.641,-0.64 0.32,-0.64 0.477,-0.64 0.48,-0.64 0.32,-0.8 0.321,-0.64 0.32,-0.8 0.32,-0.8 0.16,-0.96 0.321,-0.8 0.16,-0.96 0.16,-0.96 0.16,-0.96 v -1.12 l 0.16,-1.12 v -0.96 c 0,-13.92 -8,-18.08 -14.562,-18.08 -4.481,0 -14.238,1.28 -18.879,7.84 5.121,0.32 6.398,4 6.398,6.24 0,3.68 -2.718,6.24 -6.078,6.24 -3.199,0 -6.238,-1.92 -6.238,-6.56 0,-10.4 11.52,-17.28 25.117,-17.28 15.36,0 26.082,10.4 26.082,21.6 0,8.64 -7.043,17.28 -19.359,20 11.68,4.16 16,12.48 16,19.36 0,8.8 -10.242,15.36 -22.563,15.36 -12.32,0 -21.918,-6.08 -21.918,-14.88 0,-3.84 2.559,-5.92 5.918,-5.92 3.36,0 5.602,2.56 5.602,5.6 0,3.2 -2.242,5.6 -5.602,5.76 3.84,4.96 11.52,6.24 15.68,6.24 4.961,0 12,-2.4 12,-12.16 0,-4.64 -1.598,-9.92 -4.48,-13.28 -3.68,-4.32 -6.719,-4.48 -12.321,-4.8 -2.879,-0.16 -3.039,-0.16 -3.519,-0.32 -0.321,0 -1.117,-0.32 -1.117,-1.44 0,-1.6 0.957,-1.6 2.878,-1.6 z" /><path
         id="path38"
         style="fill:#000000;fill-opacity:1;fill-rule:evenodd;stroke:none"
         d="m 1558.46,502.867 0.64,4.16 10.88,43.36 c 1.44,5.601 1.76,6.082 8.64,6.082 h 15.2 c 13.28,0 21.76,-4.321 21.76,-15.36 0,-6.242 -3.2,-19.839 -9.44,-25.601 -8,-7.199 -17.6,-8.481 -24.48,-8.481 h -22.56 l -0.64,-4.16 h 27.2 c 22.56,0 44.64,16.641 44.64,34.403 0,12.32 -10.4,24.16 -31.36,24.16 h -51.68 c -3.04,0 -4.64,0 -4.64,-3.043 0,-1.918 1.28,-1.918 4.48,-1.918 2.08,0 4.96,-0.16 6.88,-0.321 2.56,-0.32 3.52,-0.8 3.52,-2.558 0,-0.641 -0.16,-1.121 -0.64,-3.043 l -21.28,-85.598 c -1.6,-6.242 -1.92,-7.519 -14.56,-7.519 -2.72,0 -4.48,0 -4.48,-3.043 0,-1.918 1.92,-1.918 2.4,-1.918 4.48,0 15.84,0.48 20.32,0.48 3.36,0 6.72,-0.16 10.08,-0.16 3.52,0 7.04,-0.32 10.4,-0.32 1.12,0 3.2,0 3.2,3.199 0,1.762 -1.44,1.762 -4.48,1.762 -5.92,0 -10.4,0 -10.4,2.879 0,0.961 0.32,1.757 0.48,2.718 l 9.92,39.84" /><path
         id="path40"
         style="fill:none;stroke:#000000;stroke-width:7.5;stroke-linecap:butt;stroke-linejoin:miter;stroke-miterlimit:10;stroke-dasharray:none;stroke-opacity:1"
         d="m 1558.46,502.867 0.64,4.16 10.88,43.36 c 1.44,5.601 1.76,6.082 8.64,6.082 h 15.2 c 13.28,0 21.76,-4.321 21.76,-15.36 0,-6.242 -3.2,-19.839 -9.44,-25.601 -8,-7.199 -17.6,-8.481 -24.48,-8.481 h -22.56 l -0.64,-4.16 h 27.2 c 22.56,0 44.64,16.641 44.64,34.403 0,12.32 -10.4,24.16 -31.36,24.16 h -51.68 c -3.04,0 -4.64,0 -4.64,-3.043 0,-1.918 1.28,-1.918 4.48,-1.918 2.08,0 4.96,-0.16 6.88,-0.321 2.56,-0.32 3.52,-0.8 3.52,-2.558 0,-0.641 -0.16,-1.121 -0.64,-3.043 l -21.28,-85.598 c -1.6,-6.242 -1.92,-7.519 -14.56,-7.519 -2.72,0 -4.48,0 -4.48,-3.043 0,-1.918 1.92,-1.918 2.4,-1.918 4.48,0 15.84,0.48 20.32,0.48 3.36,0 6.72,-0.16 10.08,-0.16 3.52,0 7.04,-0.32 10.4,-0.32 1.12,0 3.2,0 3.2,3.199 0,1.762 -1.44,1.762 -4.48,1.762 -5.92,0 -10.4,0 -10.4,2.879 0,0.961 0.32,1.757 0.48,2.718 z" /><path
         id="path42"
         style="fill:#000000;fill-opacity:1;fill-rule:evenodd;stroke:none"
         d="m 1626.14,435.668 v -0.32 l -0.16,-0.16 v -0.321 l -0.16,-0.16 v -0.32 l -0.16,-0.321 v -0.476 l -0.16,-0.32 v -0.321 l -0.16,-0.16 v -0.48 l -0.16,-0.161 v -0.64 l -0.16,-0.16 v -0.321 c 0,-2.398 2.08,-3.519 3.84,-3.519 1.92,0 3.84,1.441 4.32,2.402 0.48,1.117 1.44,4.637 2.08,7.039 0.48,2.078 1.76,7.199 2.4,9.918 0.64,2.563 1.28,4.961 1.92,7.52 1.12,4.64 1.44,5.441 4.64,10.082 3.2,4.48 8.32,10.238 16.8,10.238 6.4,0 6.56,-5.598 6.56,-7.84 0,-6.719 -4.8,-19.039 -6.56,-23.679 -1.28,-3.2 -1.76,-4.161 -1.76,-6.079 0,-5.921 4.96,-9.601 10.56,-9.601 11.2,0 16.16,15.359 16.16,17.121 0,1.437 -1.44,1.437 -1.76,1.437 -1.6,0 -1.76,-0.636 -2.08,-1.918 -2.72,-8.96 -7.52,-13.441 -12,-13.441 -2.24,0 -2.72,1.441 -2.72,3.84 0,2.562 0.64,4 2.56,9.121 1.44,3.359 5.92,15.199 5.92,21.441 0,10.879 -8.64,12.801 -14.56,12.801 -9.12,0 -15.52,-5.762 -18.72,-10.242 -0.8,7.68 -7.36,10.242 -12,10.242 -4.8,0 -7.36,-3.523 -8.8,-6.082 -2.4,-4.16 -4,-10.558 -4,-11.039 0,-1.441 1.6,-1.441 1.92,-1.441 1.44,0 1.6,0.32 2.4,3.359 1.6,6.563 3.84,12 8.16,12 2.88,0 3.68,-2.398 3.68,-5.437 0,-2.082 -0.96,-6.243 -1.76,-9.282 -0.8,-3.039 -1.92,-7.679 -2.56,-10.078 l -3.52,-14.242" /><path
         id="path44"
         style="fill:none;stroke:#000000;stroke-width:7.5;stroke-linecap:butt;stroke-linejoin:miter;stroke-miterlimit:10;stroke-dasharray:none;stroke-opacity:1"
         d="m 1626.14,435.668 v -0.32 l -0.16,-0.16 v -0.321 l -0.16,-0.16 v -0.32 l -0.16,-0.321 v -0.476 l -0.16,-0.32 v -0.321 l -0.16,-0.16 v -0.48 l -0.16,-0.161 v -0.64 l -0.16,-0.16 v -0.321 c 0,-2.398 2.08,-3.519 3.84,-3.519 1.92,0 3.84,1.441 4.32,2.402 0.48,1.117 1.44,4.637 2.08,7.039 0.48,2.078 1.76,7.199 2.4,9.918 0.64,2.563 1.28,4.961 1.92,7.52 1.12,4.64 1.44,5.441 4.64,10.082 3.2,4.48 8.32,10.238 16.8,10.238 6.4,0 6.56,-5.598 6.56,-7.84 0,-6.719 -4.8,-19.039 -6.56,-23.679 -1.28,-3.2 -1.76,-4.161 -1.76,-6.079 0,-5.921 4.96,-9.601 10.56,-9.601 11.2,0 16.16,15.359 16.16,17.121 0,1.437 -1.44,1.437 -1.76,1.437 -1.6,0 -1.76,-0.636 -2.08,-1.918 -2.72,-8.96 -7.52,-13.441 -12,-13.441 -2.24,0 -2.72,1.441 -2.72,3.84 0,2.562 0.64,4 2.56,9.121 1.44,3.359 5.92,15.199 5.92,21.441 0,10.879 -8.64,12.801 -14.56,12.801 -9.12,0 -15.52,-5.762 -18.72,-10.242 -0.8,7.68 -7.36,10.242 -12,10.242 -4.8,0 -7.36,-3.523 -8.8,-6.082 -2.4,-4.16 -4,-10.558 -4,-11.039 0,-1.441 1.6,-1.441 1.92,-1.441 1.44,0 1.6,0.32 2.4,3.359 1.6,6.563 3.84,12 8.16,12 2.88,0 3.68,-2.398 3.68,-5.437 0,-2.082 -0.96,-6.243 -1.76,-9.282 -0.8,-3.039 -1.92,-7.679 -2.56,-10.078 z" /><path
         id="path46"
         style="fill:#000000;fill-opacity:1;fill-rule:evenodd;stroke:none"
         d="m 1085.31,75.4414 0.64,4.1602 10.89,43.3594 c 1.43,5.602 1.75,6.078 8.63,6.078 h 15.21 c 13.27,0 21.75,-4.32 21.75,-15.359 0,-6.239 -3.2,-19.8402 -9.44,-25.598 -8,-7.2031 -17.6,-8.4804 -24.47,-8.4804 h -22.57 l -0.64,-4.1602 h 27.21 c 22.55,0 44.63,16.6406 44.63,34.3986 0,12.32 -10.4,24.16 -31.36,24.16 h -51.68 c -3.04,0 -4.64,0 -4.64,-3.039 0,-1.922 1.28,-1.922 4.48,-1.922 2.09,0 4.96,-0.16 6.89,-0.32 2.55,-0.317 3.52,-0.797 3.52,-2.559 0,-0.64 -0.16,-1.121 -0.65,-3.039 L 1062.43,37.5195 C 1060.84,31.2813 1060.52,30 1047.88,30 c -2.73,0 -4.49,0 -4.49,-3.0391 0,-1.9218 1.92,-1.9218 2.4,-1.9218 4.48,0 15.84,0.4804 20.32,0.4804 3.36,0 6.73,-0.1601 10.09,-0.1601 3.51,0 7.03,-0.3203 10.39,-0.3203 1.12,0 3.2,0 3.2,3.2031 0,1.7578 -1.43,1.7578 -4.48,1.7578 -5.92,0 -10.4,0 -10.4,2.8789 0,0.9609 0.32,1.7617 0.48,2.7227 l 9.92,39.8398" /><path
         id="path48"
         style="fill:none;stroke:#000000;stroke-width:7.5;stroke-linecap:butt;stroke-linejoin:miter;stroke-miterlimit:10;stroke-dasharray:none;stroke-opacity:1"
         d="m 1085.31,75.4414 0.64,4.1602 10.89,43.3594 c 1.43,5.602 1.75,6.078 8.63,6.078 h 15.21 c 13.27,0 21.75,-4.32 21.75,-15.359 0,-6.239 -3.2,-19.8402 -9.44,-25.598 -8,-7.2031 -17.6,-8.4804 -24.47,-8.4804 h -22.57 l -0.64,-4.1602 h 27.21 c 22.55,0 44.63,16.6406 44.63,34.3986 0,12.32 -10.4,24.16 -31.36,24.16 h -51.68 c -3.04,0 -4.64,0 -4.64,-3.039 0,-1.922 1.28,-1.922 4.48,-1.922 2.09,0 4.96,-0.16 6.89,-0.32 2.55,-0.317 3.52,-0.797 3.52,-2.559 0,-0.64 -0.16,-1.121 -0.65,-3.039 L 1062.43,37.5195 C 1060.84,31.2813 1060.52,30 1047.88,30 c -2.73,0 -4.49,0 -4.49,-3.0391 0,-1.9218 1.92,-1.9218 2.4,-1.9218 4.48,0 15.84,0.4804 20.32,0.4804 3.36,0 6.73,-0.1601 10.09,-0.1601 3.51,0 7.03,-0.3203 10.39,-0.3203 1.12,0 3.2,0 3.2,3.2031 0,1.7578 -1.43,1.7578 -4.48,1.7578 -5.92,0 -10.4,0 -10.4,2.8789 0,0.9609 0.32,1.7617 0.48,2.7227 z" /><path
         id="path50"
         style="fill:#000000;fill-opacity:1;fill-rule:evenodd;stroke:none"
         d="M 1152.99,8.24219 V 7.92188 l -0.15,-0.16016 V 7.44141 l -0.16,-0.16016 V 6.96094 l -0.16,-0.32031 V 6.16016 l -0.16,-0.32032 V 5.51953 L 1152.2,5.35938 V 4.87891 l -0.16,-0.16016 V 4.08203 l -0.16,-0.16015 V 3.60156 c 0,-2.40234 2.07,-3.5195287 3.83,-3.5195287 1.92,0 3.84,1.4374987 4.33,2.3984387 0.48,1.12109 1.43,4.64062 2.07,7.03906 0.48,2.08207 1.77,7.19927 2.41,9.92187 0.63,2.5586 1.27,4.9609 1.91,7.5195 1.12,4.6407 1.45,5.4414 4.64,10.0782 3.2,4.4804 8.32,10.2422 16.81,10.2422 6.39,0 6.55,-5.6016 6.55,-7.8399 0,-6.7226 -4.8,-19.0391 -6.55,-23.6797 -1.29,-3.1992 -1.77,-4.1601 -1.77,-6.08201 0,-5.91797 4.96,-9.5976587 10.57,-9.5976587 11.2,0 16.16,15.3593687 16.16,17.1171687 0,1.4414 -1.45,1.4414 -1.77,1.4414 -1.6,0 -1.76,-0.6406 -2.08,-1.9218 -2.72,-8.95708 -7.52,-13.43755 -12,-13.43755 -2.24,0 -2.72,1.4375 -2.72,3.83984 0,2.5586 0.64,4.00001 2.57,9.12111 1.43,3.3594 5.91,15.1992 5.91,21.4375 0,10.8828 -8.64,12.8008 -14.55,12.8008 -9.13,0 -15.52,-5.7617 -18.73,-10.2383 -0.79,7.6797 -7.36,10.2383 -12,10.2383 -4.79,0 -7.36,-3.5196 -8.79,-6.0782 -2.41,-4.1601 -4,-10.5625 -4,-11.0429 0,-1.4375 1.59,-1.4375 1.91,-1.4375 1.45,0 1.61,0.3203 2.4,3.3594 1.6,6.5585 3.85,12 8.16,12 2.89,0 3.69,-2.4024 3.69,-5.4415 0,-2.0781 -0.96,-6.2382 -1.77,-9.2773 -0.8,-3.043 -1.92,-7.6836 -2.55,-10.082 l -3.53,-14.23831" /><path
         id="path52"
         style="fill:none;stroke:#000000;stroke-width:7.5;stroke-linecap:butt;stroke-linejoin:miter;stroke-miterlimit:10;stroke-dasharray:none;stroke-opacity:1"
         d="M 1152.99,8.24219 V 7.92188 l -0.15,-0.16016 V 7.44141 l -0.16,-0.16016 V 6.96094 l -0.16,-0.32031 V 6.16016 l -0.16,-0.32032 V 5.51953 L 1152.2,5.35938 V 4.87891 l -0.16,-0.16016 V 4.08203 l -0.16,-0.16015 V 3.60156 c 0,-2.40234 2.07,-3.5195287 3.83,-3.5195287 1.92,0 3.84,1.4374987 4.33,2.3984387 0.48,1.12109 1.43,4.64062 2.07,7.03906 0.48,2.08207 1.77,7.19927 2.41,9.92187 0.63,2.5586 1.27,4.9609 1.91,7.5195 1.12,4.6407 1.45,5.4414 4.64,10.0782 3.2,4.4804 8.32,10.2422 16.81,10.2422 6.39,0 6.55,-5.6016 6.55,-7.8399 0,-6.7226 -4.8,-19.0391 -6.55,-23.6797 -1.29,-3.1992 -1.77,-4.1601 -1.77,-6.08201 0,-5.91797 4.96,-9.5976587 10.57,-9.5976587 11.2,0 16.16,15.3593687 16.16,17.1171687 0,1.4414 -1.45,1.4414 -1.77,1.4414 -1.6,0 -1.76,-0.6406 -2.08,-1.9218 -2.72,-8.95708 -7.52,-13.43755 -12,-13.43755 -2.24,0 -2.72,1.4375 -2.72,3.83984 0,2.5586 0.64,4.00001 2.57,9.12111 1.43,3.3594 5.91,15.1992 5.91,21.4375 0,10.8828 -8.64,12.8008 -14.55,12.8008 -9.13,0 -15.52,-5.7617 -18.73,-10.2383 -0.79,7.6797 -7.36,10.2383 -12,10.2383 -4.79,0 -7.36,-3.5196 -8.79,-6.0782 -2.41,-4.1601 -4,-10.5625 -4,-11.0429 0,-1.4375 1.59,-1.4375 1.91,-1.4375 1.45,0 1.61,0.3203 2.4,3.3594 1.6,6.5585 3.85,12 8.16,12 2.89,0 3.69,-2.4024 3.69,-5.4415 0,-2.0781 -0.96,-6.2382 -1.77,-9.2773 -0.8,-3.043 -1.92,-7.6836 -2.55,-10.082 z" /><path
         id="path54"
         style="fill:#000000;fill-opacity:1;fill-rule:evenodd;stroke:none"
         d="m 1301.15,26.4805 h 2.24 l 0.16,0.1601 h 0.33 l 0.16,0.1602 h 0.16 l 0.16,0.1601 h 0.16 l 0.16,0.1602 h 0.16 v 0.1602 l 0.15,0.1601 h 0.16 v 0.1602 l 0.16,0.1601 v 0.1602 l 0.16,0.1601 v 0.4805 h 0.16 v 0.4766 c 0,2.8828 -2.56,2.8828 -4.48,2.8828 h -66.56 c -1.75,0 -4.48,0 -4.48,-2.7227 0,-2.7187 2.57,-2.7187 4.48,-2.7187 h 66.56" /><path
         id="path56"
         style="fill:none;stroke:#000000;stroke-width:7.5;stroke-linecap:butt;stroke-linejoin:miter;stroke-miterlimit:10;stroke-dasharray:none;stroke-opacity:1"
         d="m 1301.15,26.4805 h 2.24 l 0.16,0.1601 h 0.33 l 0.16,0.1602 h 0.16 l 0.16,0.1601 h 0.16 l 0.16,0.1602 h 0.16 v 0.1602 l 0.15,0.1601 h 0.16 v 0.1602 l 0.16,0.1601 v 0.1602 l 0.16,0.1601 v 0.4805 h 0.16 v 0.4766 c 0,2.8828 -2.56,2.8828 -4.48,2.8828 h -66.56 c -1.75,0 -4.48,0 -4.48,-2.7227 0,-2.7187 2.57,-2.7187 4.48,-2.7187 z" /><path
         id="path58"
         style="fill:#000000;fill-opacity:1;fill-rule:evenodd;stroke:none"
         d="m 1355.23,72.2422 v 1.4375 l -0.16,0.1601 v 0.4805 l -0.16,0.1602 v 0.1601 l -0.16,0.1602 v 0 l -0.16,0.1601 v 0 l -0.16,0.1602 h -0.48 v 0.1602 h -0.32 -0.16 -0.16 -0.47 -0.48 -0.48 c -7.2,-7.0391 -17.29,-7.1993 -21.93,-7.1993 v -4 c 2.73,0 10.09,0 16.16,3.1993 v -56.961 c 0,-3.67967 0,-5.12108 -11.04,-5.12108 h -4.32 v -4 c 19.84,0 2.09,0.16016 15.68,0.48047 4.16,0 7.68,0 21.77,-0.32031 l 2.39,3.83984 h -4.16 c -11.2,0 -11.2,1.44141 -11.2,5.12108 v 61.9219" /><path
         id="path60"
         style="fill:none;stroke:#000000;stroke-width:7.5;stroke-linecap:butt;stroke-linejoin:miter;stroke-miterlimit:10;stroke-dasharray:none;stroke-opacity:1"
         d="m 1355.23,72.2422 v 1.4375 l -0.16,0.1601 v 0.4805 l -0.16,0.1602 v 0.1601 l -0.16,0.1602 v 0 l -0.16,0.1601 v 0 l -0.16,0.1602 h -0.48 v 0.1602 h -0.32 -0.16 -0.16 -0.47 -0.48 -0.48 c -7.2,-7.0391 -17.29,-7.1993 -21.93,-7.1993 v -4 c 2.73,0 10.09,0 16.16,3.1993 v -56.961 c 0,-3.67967 0,-5.12108 -11.04,-5.12108 h -4.32 v -4 c 19.84,0 2.09,0.16016 15.68,0.48047 4.16,0 7.68,0 21.77,-0.32031 l 2.39,3.83984 h -4.16 c -11.2,0 -11.2,1.44141 -11.2,5.12108 z" /><path
         id="path62"
         style="fill:#000000;fill-opacity:1;fill-rule:evenodd;stroke:none"
         d="m 246.457,141.727 0.641,4.16 10.879,43.359 c 1.441,5.602 1.761,6.082 8.64,6.082 h 15.199 c 13.282,0 21.762,-4.32 21.762,-15.363 0,-6.238 -3.199,-19.84 -9.441,-25.598 -8,-7.199 -17.602,-8.48 -24.481,-8.48 h -22.558 l -0.641,-4.16 h 27.199 c 22.563,0 44.641,16.64 44.641,34.398 0,12.32 -10.399,24.16 -31.359,24.16 h -51.68 c -3.039,0 -4.641,0 -4.641,-3.039 0,-1.918 1.281,-1.918 4.481,-1.918 2.078,0 4.961,-0.16 6.879,-0.32 2.558,-0.32 3.519,-0.801 3.519,-2.563 0,-0.636 -0.16,-1.117 -0.641,-3.039 l -21.277,-85.597 c -1.601,-6.2426 -1.922,-7.5238 -14.562,-7.5238 -2.719,0 -4.481,0 -4.481,-3.0391 0,-1.918 1.922,-1.918 2.403,-1.918 4.48,0 15.839,0.4805 20.32,0.4805 3.359,0 6.719,-0.1602 10.078,-0.1602 3.519,0 7.043,-0.3203 10.402,-0.3203 1.117,0 3.2,0 3.2,3.1992 0,1.7579 -1.442,1.7579 -4.481,1.7579 -5.922,0 -10.398,0 -10.398,2.8828 0,0.957 0.32,1.758 0.476,2.719 l 9.922,39.84" /><path
         id="path64"
         style="fill:none;stroke:#000000;stroke-width:7.5;stroke-linecap:butt;stroke-linejoin:miter;stroke-miterlimit:10;stroke-dasharray:none;stroke-opacity:1"
         d="m 246.457,141.727 0.641,4.16 10.879,43.359 c 1.441,5.602 1.761,6.082 8.64,6.082 h 15.199 c 13.282,0 21.762,-4.32 21.762,-15.363 0,-6.238 -3.199,-19.84 -9.441,-25.598 -8,-7.199 -17.602,-8.48 -24.481,-8.48 h -22.558 l -0.641,-4.16 h 27.199 c 22.563,0 44.641,16.64 44.641,34.398 0,12.32 -10.399,24.16 -31.359,24.16 h -51.68 c -3.039,0 -4.641,0 -4.641,-3.039 0,-1.918 1.281,-1.918 4.481,-1.918 2.078,0 4.961,-0.16 6.879,-0.32 2.558,-0.32 3.519,-0.801 3.519,-2.563 0,-0.636 -0.16,-1.117 -0.641,-3.039 l -21.277,-85.597 c -1.601,-6.2426 -1.922,-7.5238 -14.562,-7.5238 -2.719,0 -4.481,0 -4.481,-3.0391 0,-1.918 1.922,-1.918 2.403,-1.918 4.48,0 15.839,0.4805 20.32,0.4805 3.359,0 6.719,-0.1602 10.078,-0.1602 3.519,0 7.043,-0.3203 10.402,-0.3203 1.117,0 3.2,0 3.2,3.1992 0,1.7579 -1.442,1.7579 -4.481,1.7579 -5.922,0 -10.398,0 -10.398,2.8828 0,0.957 0.32,1.758 0.476,2.719 z" /><path
         id="path66"
         style="fill:#000000;fill-opacity:1;fill-rule:evenodd;stroke:none"
         d="M 314.137,74.5273 V 74.207 l -0.16,-0.1601 v -0.3203 l -0.161,-0.1602 v -0.3203 l -0.16,-0.3203 v -0.4805 l -0.16,-0.3203 v -0.3164 l -0.16,-0.1602 V 71.168 l -0.16,-0.1602 v -0.6406 l -0.16,-0.1602 v -0.3203 c 0,-2.3984 2.082,-3.5195 3.839,-3.5195 1.922,0 3.84,1.4414 4.321,2.3984 0.48,1.1211 1.441,4.6407 2.082,7.043 0.48,2.0781 1.758,7.1992 2.398,9.918 0.641,2.5586 1.282,4.9609 1.922,7.5195 1.117,4.6406 1.438,5.4414 4.641,10.0819 3.199,4.481 8.316,10.238 16.797,10.238 6.402,0 6.562,-5.601 6.562,-7.839 0,-6.7192 -4.801,-19.0395 -6.562,-23.6801 -1.278,-3.1992 -1.758,-4.1602 -1.758,-6.0821 0,-5.9179 4.961,-9.5976 10.558,-9.5976 11.2,0 16.161,15.3594 16.161,17.1211 0,1.4375 -1.442,1.4375 -1.758,1.4375 -1.602,0 -1.762,-0.6406 -2.082,-1.918 -2.719,-8.9609 -7.52,-13.4414 -12,-13.4414 -2.239,0 -2.719,1.4414 -2.719,3.8399 0,2.5585 0.641,4 2.559,9.121 1.441,3.3594 5.921,15.1993 5.921,21.4377 0,10.883 -8.64,12.801 -14.562,12.801 -9.117,0 -15.52,-5.758 -18.719,-10.239 -0.801,7.68 -7.359,10.239 -12,10.239 -4.801,0 -7.359,-3.52 -8.801,-6.078 -2.398,-4.161 -4,-10.563 -4,-11.0396 0,-1.4414 1.602,-1.4414 1.922,-1.4414 1.438,0 1.598,0.3203 2.399,3.359 1.601,6.559 3.84,12 8.16,12 2.879,0 3.68,-2.398 3.68,-5.441 0,-2.078 -0.961,-6.238 -1.758,-9.2773 -0.801,-3.0391 -1.922,-7.6797 -2.563,-10.0821 l -3.519,-14.2383" /><path
         id="path68"
         style="fill:none;stroke:#000000;stroke-width:7.5;stroke-linecap:butt;stroke-linejoin:miter;stroke-miterlimit:10;stroke-dasharray:none;stroke-opacity:1"
         d="M 314.137,74.5273 V 74.207 l -0.16,-0.1601 v -0.3203 l -0.161,-0.1602 v -0.3203 l -0.16,-0.3203 v -0.4805 l -0.16,-0.3203 v -0.3164 l -0.16,-0.1602 V 71.168 l -0.16,-0.1602 v -0.6406 l -0.16,-0.1602 v -0.3203 c 0,-2.3984 2.082,-3.5195 3.839,-3.5195 1.922,0 3.84,1.4414 4.321,2.3984 0.48,1.1211 1.441,4.6407 2.082,7.043 0.48,2.0781 1.758,7.1992 2.398,9.918 0.641,2.5586 1.282,4.9609 1.922,7.5195 1.117,4.6406 1.438,5.4414 4.641,10.0819 3.199,4.481 8.316,10.238 16.797,10.238 6.402,0 6.562,-5.601 6.562,-7.839 0,-6.7192 -4.801,-19.0395 -6.562,-23.6801 -1.278,-3.1992 -1.758,-4.1602 -1.758,-6.0821 0,-5.9179 4.961,-9.5976 10.558,-9.5976 11.2,0 16.161,15.3594 16.161,17.1211 0,1.4375 -1.442,1.4375 -1.758,1.4375 -1.602,0 -1.762,-0.6406 -2.082,-1.918 -2.719,-8.9609 -7.52,-13.4414 -12,-13.4414 -2.239,0 -2.719,1.4414 -2.719,3.8399 0,2.5585 0.641,4 2.559,9.121 1.441,3.3594 5.921,15.1993 5.921,21.4377 0,10.883 -8.64,12.801 -14.562,12.801 -9.117,0 -15.52,-5.758 -18.719,-10.239 -0.801,7.68 -7.359,10.239 -12,10.239 -4.801,0 -7.359,-3.52 -8.801,-6.078 -2.398,-4.161 -4,-10.563 -4,-11.0396 0,-1.4414 1.602,-1.4414 1.922,-1.4414 1.438,0 1.598,0.3203 2.399,3.359 1.601,6.559 3.84,12 8.16,12 2.879,0 3.68,-2.398 3.68,-5.441 0,-2.078 -0.961,-6.238 -1.758,-9.2773 -0.801,-3.0391 -1.922,-7.6797 -2.563,-10.0821 z" /><path
         id="path70"
         style="fill:#000000;fill-opacity:1;fill-rule:evenodd;stroke:none"
         d="m 462.297,92.7656 h 2.238 l 0.16,0.1602 h 0.321 l 0.16,0.1601 h 0.16 l 0.16,0.1602 h 0.16 l 0.16,0.1602 h 0.161 v 0.1601 l 0.16,0.1602 h 0.16 v 0.1601 l 0.16,0.1602 v 0.1601 l 0.16,0.1602 v 0.4805 h 0.16 v 0.4804 c 0,2.8789 -2.558,2.8789 -4.48,2.8789 h -66.559 c -1.761,0 -4.48,0 -4.48,-2.7187 0,-2.7227 2.558,-2.7227 4.48,-2.7227 h 66.559" /><path
         id="path72"
         style="fill:none;stroke:#000000;stroke-width:7.5;stroke-linecap:butt;stroke-linejoin:miter;stroke-miterlimit:10;stroke-dasharray:none;stroke-opacity:1"
         d="m 462.297,92.7656 h 2.238 l 0.16,0.1602 h 0.321 l 0.16,0.1601 h 0.16 l 0.16,0.1602 h 0.16 l 0.16,0.1602 h 0.161 v 0.1601 l 0.16,0.1602 h 0.16 v 0.1601 l 0.16,0.1602 v 0.1601 l 0.16,0.1602 v 0.4805 h 0.16 v 0.4804 c 0,2.8789 -2.558,2.8789 -4.48,2.8789 h -66.559 c -1.761,0 -4.48,0 -4.48,-2.7187 0,-2.7227 2.558,-2.7227 4.48,-2.7227 z" /><path
         id="path74"
         style="fill:#000000;fill-opacity:1;fill-rule:evenodd;stroke:none"
         d="m 535.258,87.8086 h -3.68 c -0.32,-2.4023 -1.441,-9.1211 -2.883,-10.082 -0.957,-0.8008 -9.597,-0.8008 -11.039,-0.8008 h -20.64 c 11.679,10.4023 15.679,13.6015 22.402,18.7226 8.16,6.7186 15.84,13.5976 15.84,24.1606 0,13.437 -11.84,21.757 -26.082,21.757 -13.758,0 -23.199,-9.757 -23.199,-20 0,-5.601 4.8,-6.238 5.921,-6.238 2.719,0 5.918,1.918 5.918,5.918 0,2.082 -0.8,5.922 -6.558,5.922 3.519,8 11.039,10.398 16.32,10.398 11.039,0 16.957,-8.64 16.957,-17.757 0,-9.762 -6.879,-17.442 -10.558,-21.4418 L 487.098,71.8086 c -1.121,-0.9609 -1.121,-1.1211 -1.121,-4.3203 h 45.921 l 3.36,20.3203" /><path
         id="path76"
         style="fill:none;stroke:#000000;stroke-width:7.5;stroke-linecap:butt;stroke-linejoin:miter;stroke-miterlimit:10;stroke-dasharray:none;stroke-opacity:1"
         d="m 535.258,87.8086 h -3.68 c -0.32,-2.4023 -1.441,-9.1211 -2.883,-10.082 -0.957,-0.8008 -9.597,-0.8008 -11.039,-0.8008 h -20.64 c 11.679,10.4023 15.679,13.6015 22.402,18.7226 8.16,6.7186 15.84,13.5976 15.84,24.1606 0,13.437 -11.84,21.757 -26.082,21.757 -13.758,0 -23.199,-9.757 -23.199,-20 0,-5.601 4.8,-6.238 5.921,-6.238 2.719,0 5.918,1.918 5.918,5.918 0,2.082 -0.8,5.922 -6.558,5.922 3.519,8 11.039,10.398 16.32,10.398 11.039,0 16.957,-8.64 16.957,-17.757 0,-9.762 -6.879,-17.442 -10.558,-21.4418 L 487.098,71.8086 c -1.121,-0.9609 -1.121,-1.1211 -1.121,-4.3203 h 45.921 z" /><path
         id="path78"
         style="fill:#000000;fill-opacity:1;fill-rule:evenodd;stroke:none"
         d="m 816.777,753.738 0.641,4.16 10.879,43.36 c 1.441,5.601 1.762,6.078 8.641,6.078 h 15.199 c 13.281,0 21.761,-4.32 21.761,-15.359 0,-6.239 -3.203,-19.84 -9.441,-25.598 -8,-7.203 -17.602,-8.481 -24.48,-8.481 h -22.559 l -0.641,-4.16 h 27.2 c 22.558,0 44.64,16.641 44.64,34.399 0,12.32 -10.398,24.16 -31.359,24.16 h -51.68 c -3.043,0 -4.64,0 -4.64,-3.039 0,-1.922 1.281,-1.922 4.48,-1.922 2.078,0 4.961,-0.16 6.879,-0.32 2.558,-0.317 3.519,-0.797 3.519,-2.559 0,-0.641 -0.16,-1.121 -0.64,-3.039 l -21.278,-85.602 c -1.601,-6.238 -1.921,-7.519 -14.562,-7.519 -2.719,0 -4.481,0 -4.481,-3.039 0,-1.922 1.922,-1.922 2.403,-1.922 4.48,0 15.84,0.48 20.32,0.48 3.36,0 6.719,-0.16 10.078,-0.16 3.52,0 7.039,-0.32 10.403,-0.32 1.117,0 3.199,0 3.199,3.203 0,1.758 -1.442,1.758 -4.481,1.758 -5.922,0 -10.398,0 -10.398,2.879 0,0.961 0.316,1.762 0.476,2.722 l 9.922,39.84" /><path
         id="path80"
         style="fill:none;stroke:#000000;stroke-width:7.5;stroke-linecap:butt;stroke-linejoin:miter;stroke-miterlimit:10;stroke-dasharray:none;stroke-opacity:1"
         d="m 816.777,753.738 0.641,4.16 10.879,43.36 c 1.441,5.601 1.762,6.078 8.641,6.078 h 15.199 c 13.281,0 21.761,-4.32 21.761,-15.359 0,-6.239 -3.203,-19.84 -9.441,-25.598 -8,-7.203 -17.602,-8.481 -24.48,-8.481 h -22.559 l -0.641,-4.16 h 27.2 c 22.558,0 44.64,16.641 44.64,34.399 0,12.32 -10.398,24.16 -31.359,24.16 h -51.68 c -3.043,0 -4.64,0 -4.64,-3.039 0,-1.922 1.281,-1.922 4.48,-1.922 2.078,0 4.961,-0.16 6.879,-0.32 2.558,-0.317 3.519,-0.797 3.519,-2.559 0,-0.641 -0.16,-1.121 -0.64,-3.039 l -21.278,-85.602 c -1.601,-6.238 -1.921,-7.519 -14.562,-7.519 -2.719,0 -4.481,0 -4.481,-3.039 0,-1.922 1.922,-1.922 2.403,-1.922 4.48,0 15.84,0.48 20.32,0.48 3.36,0 6.719,-0.16 10.078,-0.16 3.52,0 7.039,-0.32 10.403,-0.32 1.117,0 3.199,0 3.199,3.203 0,1.758 -1.442,1.758 -4.481,1.758 -5.922,0 -10.398,0 -10.398,2.879 0,0.961 0.316,1.762 0.476,2.722 z" /><path
         id="path82"
         style="fill:#000000;fill-opacity:1;fill-rule:evenodd;stroke:none"
         d="m 928.457,715.016 v 2.402 l -0.16,2.078 v 2.082 l -0.16,2.078 -0.16,2.082 -0.321,1.758 -0.32,1.922 -0.32,1.758 -0.321,1.762 -0.476,1.761 -0.641,1.598 -0.48,1.601 -0.801,1.598 -0.641,1.442 -0.961,1.601 -0.316,0.797 -0.481,0.641 c -3.519,5.121 -10.402,9.601 -19.363,9.601 -25.918,0 -25.918,-30.402 -25.918,-38.562 0,-8 0,-37.758 25.918,-37.758 v 3.199 c -5.117,0 -12,2.879 -14.078,12.16 -1.602,6.559 -1.602,15.68 -1.602,24 0,8 0,16.481 1.602,22.719 2.398,8.801 9.441,11.203 14.078,11.203 6.082,0 11.844,-3.68 13.922,-10.242 1.762,-6.078 1.762,-14.078 1.762,-23.68 0,-8.32 0,-16.64 -1.442,-23.679 -2.242,-10.079 -9.761,-12.481 -14.242,-12.481 v -3.199 c 25.922,0 25.922,29.758 25.922,37.758" /><path
         id="path84"
         style="fill:none;stroke:#000000;stroke-width:7.5;stroke-linecap:butt;stroke-linejoin:miter;stroke-miterlimit:10;stroke-dasharray:none;stroke-opacity:1"
         d="m 928.457,715.016 v 2.402 l -0.16,2.078 v 2.082 l -0.16,2.078 -0.16,2.082 -0.321,1.758 -0.32,1.922 -0.32,1.758 -0.321,1.762 -0.476,1.761 -0.641,1.598 -0.48,1.601 -0.801,1.598 -0.641,1.442 -0.961,1.601 -0.316,0.797 -0.481,0.641 c -3.519,5.121 -10.402,9.601 -19.363,9.601 -25.918,0 -25.918,-30.402 -25.918,-38.562 0,-8 0,-37.758 25.918,-37.758 v 3.199 c -5.117,0 -12,2.879 -14.078,12.16 -1.602,6.559 -1.602,15.68 -1.602,24 0,8 0,16.481 1.602,22.719 2.398,8.801 9.441,11.203 14.078,11.203 6.082,0 11.844,-3.68 13.922,-10.242 1.762,-6.078 1.762,-14.078 1.762,-23.68 0,-8.32 0,-16.64 -1.442,-23.679 -2.242,-10.079 -9.761,-12.481 -14.242,-12.481 v -3.199 c 25.922,0 25.922,29.758 25.922,37.758 z" /><path
         id="path86"
         style="fill:#000000;fill-opacity:1;fill-rule:nonzero;stroke:none"
         d="m 184.344,974.469 c 0,-15.899 -12.903,-28.801 -28.801,-28.801 -15.898,0 -28.801,12.902 -28.801,28.801 0,15.898 12.903,28.801 28.801,28.801 15.898,0 28.801,-12.903 28.801,-28.801" /><g
         transform="scale(0.894737,-1.10526)"
         id="g88"><path
           id="path90"
           style="fill:none;stroke:#000000;stroke-width:6.43745995;stroke-linecap:butt;stroke-linejoin:miter;stroke-miterlimit:10;stroke-dasharray:none;stroke-opacity:1"
           d="m 206.031,-881.662 c 0,14.384 -14.42,26.058 -32.189,26.058 -17.769,0 -32.189,-11.674 -32.189,-26.058 0,-14.385 14.42,-26.055 32.189,-26.055 17.769,0 32.189,11.67 32.189,26.055 z" /></g><path
         id="path92"
         style="fill:#000000;fill-opacity:1;fill-rule:nonzero;stroke:none"
         d="m 532.914,1277.32 c 0,-15.89 -12.902,-28.79 -28.801,-28.79 -15.894,0 -28.797,12.9 -28.797,28.79 0,15.9 12.903,28.81 28.797,28.81 15.899,0 28.801,-12.91 28.801,-28.81" /><g
         transform="scale(0.894737,-1.10526)"
         id="g94"><path
           id="path96"
           style="fill:none;stroke:#000000;stroke-width:6.43745995;stroke-linecap:butt;stroke-linejoin:miter;stroke-miterlimit:10;stroke-dasharray:none;stroke-opacity:1"
           d="m 595.61,-1155.67 c 0,14.38 -14.42,26.05 -32.189,26.05 -17.765,0 -32.185,-11.67 -32.185,-26.05 0,-14.39 14.42,-26.06 32.185,-26.06 17.769,0 32.189,11.67 32.189,26.06 z" /></g><path
         id="path98"
         style="fill:#000000;fill-opacity:1;fill-rule:nonzero;stroke:none"
         d="m 1098.63,1300.18 c 0,-15.89 -12.9,-28.8 -28.8,-28.8 -15.9,0 -28.8,12.91 -28.8,28.8 0,15.9 12.9,28.8 28.8,28.8 15.9,0 28.8,-12.9 28.8,-28.8" /><g
         transform="scale(0.894737,-1.10526)"
         id="g100"><path
           id="path102"
           style="fill:none;stroke:#000000;stroke-width:6.43745995;stroke-linecap:butt;stroke-linejoin:miter;stroke-miterlimit:10;stroke-dasharray:none;stroke-opacity:1"
           d="m 1227.88,-1176.36 c 0,14.39 -14.42,26.06 -32.19,26.06 -17.77,0 -32.18,-11.67 -32.18,-26.06 0,-14.38 14.41,-26.05 32.18,-26.05 17.77,0 32.19,11.67 32.19,26.05 z" /></g><path
         id="path104"
         style="fill:#000000;fill-opacity:1;fill-rule:nonzero;stroke:none"
         d="m 1527.2,523.039 c 0,-15.894 -12.9,-28.797 -28.8,-28.797 -15.9,0 -28.8,12.903 -28.8,28.797 0,15.899 12.9,28.801 28.8,28.801 15.9,0 28.8,-12.902 28.8,-28.801" /><g
         transform="scale(0.894737,-1.10526)"
         id="g106"><path
           id="path108"
           style="fill:none;stroke:#000000;stroke-width:6.43745995;stroke-linecap:butt;stroke-linejoin:miter;stroke-miterlimit:10;stroke-dasharray:none;stroke-opacity:1"
           d="m 1706.87,-473.226 c 0,14.381 -14.42,26.054 -32.19,26.054 -17.76,0 -32.18,-11.673 -32.18,-26.054 0,-14.384 14.42,-26.058 32.18,-26.058 17.77,0 32.19,11.674 32.19,26.058 z" /></g><path
         id="path110"
         style="fill:#000000;fill-opacity:1;fill-rule:nonzero;stroke:none"
         d="m 1150.05,185.898 c 0,-15.898 -12.9,-28.8 -28.79,-28.8 -15.9,0 -28.8,12.902 -28.8,28.8 0,15.895 12.9,28.797 28.8,28.797 15.89,0 28.79,-12.902 28.79,-28.797" /><g
         transform="scale(0.894737,-1.10526)"
         id="g112"><path
           id="path114"
           style="fill:none;stroke:#000000;stroke-width:6.43745995;stroke-linecap:butt;stroke-linejoin:miter;stroke-miterlimit:10;stroke-dasharray:none;stroke-opacity:1"
           d="m 1285.36,-168.194 c 0,14.384 -14.43,26.058 -32.19,26.058 -17.77,0 -32.19,-11.674 -32.19,-26.058 0,-14.381 14.42,-26.054 32.19,-26.054 17.76,0 32.19,11.673 32.19,26.054 z" /></g><path
         id="path116"
         style="fill:#000000;fill-opacity:1;fill-rule:nonzero;stroke:none"
         d="m 424.344,214.469 c 0,-15.899 -12.903,-28.801 -28.801,-28.801 -15.898,0 -28.801,12.902 -28.801,28.801 0,15.898 12.903,28.797 28.801,28.797 15.898,0 28.801,-12.899 28.801,-28.797" /><g
         transform="scale(0.894737,-1.10526)"
         id="g118"><path
           id="path120"
           style="fill:none;stroke:#000000;stroke-width:6.43745995;stroke-linecap:butt;stroke-linejoin:miter;stroke-miterlimit:10;stroke-dasharray:none;stroke-opacity:1"
           d="m 474.267,-194.043 c 0,14.384 -14.421,26.058 -32.19,26.058 -17.768,0 -32.189,-11.674 -32.189,-26.058 0,-14.384 14.421,-26.054 32.189,-26.054 17.769,0 32.19,11.67 32.19,26.054 z" /></g><path
         id="path122"
         style="fill:none;stroke:#000000;stroke-width:8;stroke-linecap:butt;stroke-linejoin:miter;stroke-miterlimit:10;stroke-dasharray:none;stroke-opacity:1"
         d="M 1078.41,1280.49 1492.57,539.035" /><path
         id="path124"
         style="fill:none;stroke:#000000;stroke-width:8;stroke-linecap:butt;stroke-linejoin:miter;stroke-miterlimit:10;stroke-dasharray:none;stroke-opacity:1"
         d="M 1490.55,508.73 1137,195.582" /><path
         id="path126"
         style="fill:none;stroke:#000000;stroke-width:8;stroke-linecap:butt;stroke-linejoin:miter;stroke-miterlimit:10;stroke-dasharray:none;stroke-opacity:1"
         d="M 1089.58,188.777 427.223,215.016" /><path
         id="path128"
         style="fill:none;stroke:#000000;stroke-width:8;stroke-linecap:butt;stroke-linejoin:miter;stroke-miterlimit:10;stroke-dasharray:8, 16;stroke-dashoffset:0;stroke-opacity:1"
         d="M 384.461,246.824 164.801,942.113" /><path
         id="path130"
         style="fill:none;stroke:#000000;stroke-width:8;stroke-linecap:butt;stroke-linejoin:miter;stroke-miterlimit:10;stroke-dasharray:none;stroke-opacity:1"
         d="M 173.313,985.523 494.539,1268.36" /><path
         id="path132"
         style="fill:none;stroke:#000000;stroke-width:8;stroke-linecap:butt;stroke-linejoin:miter;stroke-miterlimit:10;stroke-dasharray:none;stroke-opacity:1"
         d="m 535.793,1281.1 502.357,20.01" /><path
         id="path134"
         style="fill:#000000;fill-opacity:1;fill-rule:nonzero;stroke:none"
         d="m 732.914,699.039 c 0,-15.894 -12.902,-28.797 -28.801,-28.797 -15.894,0 -28.797,12.903 -28.797,28.797 0,15.899 12.903,28.801 28.797,28.801 15.899,0 28.801,-12.902 28.801,-28.801" /><g
         transform="scale(0.894737,-1.10526)"
         id="g136"><path
           id="path138"
           style="fill:none;stroke:#000000;stroke-width:6.43745995;stroke-linecap:butt;stroke-linejoin:miter;stroke-miterlimit:10;stroke-dasharray:none;stroke-opacity:1"
           d="m 819.139,-632.464 c 0,14.381 -14.42,26.054 -32.189,26.054 -17.764,0 -32.185,-11.673 -32.185,-26.054 0,-14.384 14.421,-26.058 32.185,-26.058 17.769,0 32.189,11.674 32.189,26.058 z" /></g><path
         id="path140"
         style="fill:none;stroke:#000000;stroke-width:8;stroke-linecap:butt;stroke-linejoin:miter;stroke-miterlimit:10;stroke-dasharray:none;stroke-opacity:1"
         d="M 694.551,688.535 403.625,223.867" /><path
         id="path142"
         style="fill:none;stroke:#000000;stroke-width:8;stroke-linecap:butt;stroke-linejoin:miter;stroke-miterlimit:10;stroke-dasharray:none;stroke-opacity:1"
         d="m 676.813,731.398 v 0" /><path
         id="path144"
         style="fill:none;stroke:#000000;stroke-width:8;stroke-linecap:butt;stroke-linejoin:miter;stroke-miterlimit:10;stroke-dasharray:none;stroke-opacity:1"
         d="M 720.813,688.535 1110.73,201.645" /><path
         id="path146"
         style="fill:none;stroke:#000000;stroke-width:8;stroke-linecap:butt;stroke-linejoin:miter;stroke-miterlimit:10;stroke-dasharray:none;stroke-opacity:1"
         d="M 735.793,693.391 1466.72,531.32" /><path
         id="path148"
         style="fill:none;stroke:#000000;stroke-width:8;stroke-linecap:butt;stroke-linejoin:miter;stroke-miterlimit:10;stroke-dasharray:none;stroke-opacity:1"
         d="M 692.531,706.719 167.25,971.379" /><path
         id="path150"
         style="fill:none;stroke:#000000;stroke-width:8;stroke-linecap:butt;stroke-linejoin:miter;stroke-miterlimit:10;stroke-dasharray:none;stroke-opacity:1"
         d="M 515.492,1244.97 702.633,712.781" /><path
         id="path152"
         style="fill:none;stroke:#000000;stroke-width:8;stroke-linecap:butt;stroke-linejoin:miter;stroke-miterlimit:10;stroke-dasharray:none;stroke-opacity:1"
         d="M 1066.29,1288.57 698.59,684.496" /><path
         id="path154"
         style="fill:#000000;fill-opacity:1;fill-rule:evenodd;stroke:none"
         d="m 738.332,1130.99 h -0.48 l -0.321,-0.15 h -0.801 l -0.48,-0.16 -0.32,-0.16 -0.317,-0.16 h -0.32 l -0.48,-0.16 -0.321,-0.32 -0.32,-0.17 -0.32,-0.16 -0.161,-0.16 -0.32,-0.32 -0.32,-0.16 -0.321,-0.32 -0.16,-0.16 -0.32,-0.32 -0.16,-0.32 -0.16,-0.16 -0.16,-0.32 -0.317,-0.32 -0.16,-0.31 v -0.32 l -0.16,-0.32 -0.16,-0.33 -0.16,-0.32 v -0.64 l -0.161,-0.32 v -0.64 c 0,-2.24 1.438,-4.64 4.961,-4.64 3.52,0 7.36,2.73 7.36,8.96 0,7.2 -6.883,13.77 -19.043,13.77 -20.957,0 -26.879,-16.33 -26.879,-23.36 0,-12.48 11.84,-14.73 16.32,-15.68 8.32,-1.61 16.641,-3.37 16.641,-12.16 0,-4.16 -3.68,-17.61 -22.879,-17.61 -2.082,0 -14.403,0 -18.082,8.48 6.082,-0.8 10.082,4 10.082,8.49 0,3.67 -2.563,5.59 -5.922,5.59 -4.16,0 -8.961,-3.36 -8.961,-10.56 0,-9.12 9.121,-15.52 22.883,-15.52 25.758,0 32,19.36 32,26.56 0,5.77 -3.043,9.6 -4.961,11.52 -4.32,4.48 -8.961,5.28 -16,6.73 -5.762,1.27 -12,2.39 -12,9.59 0,4.64 3.68,14.41 17.758,14.41 4,0 12,-1.13 14.402,-7.37" /><path
         id="path156"
         style="fill:none;stroke:#000000;stroke-width:7.5;stroke-linecap:butt;stroke-linejoin:miter;stroke-miterlimit:10;stroke-dasharray:none;stroke-opacity:1"
         d="m 738.332,1130.99 h -0.48 l -0.321,-0.15 h -0.801 l -0.48,-0.16 -0.32,-0.16 -0.317,-0.16 h -0.32 l -0.48,-0.16 -0.321,-0.32 -0.32,-0.17 -0.32,-0.16 -0.161,-0.16 -0.32,-0.32 -0.32,-0.16 -0.321,-0.32 -0.16,-0.16 -0.32,-0.32 -0.16,-0.32 -0.16,-0.16 -0.16,-0.32 -0.317,-0.32 -0.16,-0.31 v -0.32 l -0.16,-0.32 -0.16,-0.33 -0.16,-0.32 v -0.64 l -0.161,-0.32 v -0.64 c 0,-2.24 1.438,-4.64 4.961,-4.64 3.52,0 7.36,2.73 7.36,8.96 0,7.2 -6.883,13.77 -19.043,13.77 -20.957,0 -26.879,-16.33 -26.879,-23.36 0,-12.48 11.84,-14.73 16.32,-15.68 8.32,-1.61 16.641,-3.37 16.641,-12.16 0,-4.16 -3.68,-17.61 -22.879,-17.61 -2.082,0 -14.403,0 -18.082,8.48 6.082,-0.8 10.082,4 10.082,8.49 0,3.67 -2.563,5.59 -5.922,5.59 -4.16,0 -8.961,-3.36 -8.961,-10.56 0,-9.12 9.121,-15.52 22.883,-15.52 25.758,0 32,19.36 32,26.56 0,5.77 -3.043,9.6 -4.961,11.52 -4.32,4.48 -8.961,5.28 -16,6.73 -5.762,1.27 -12,2.39 -12,9.59 0,4.64 3.68,14.41 17.758,14.41 4,0 12,-1.13 14.402,-7.37 z" /><path
         id="path158"
         style="fill:#000000;fill-opacity:1;fill-rule:evenodd;stroke:none"
         d="m 788.09,1118.52 v 1.75 h -0.16 v 0.48 l -0.16,0.16 v 0 l -0.157,0.16 v 0 l -0.16,0.16 v 0 l -0.16,0.16 h -0.16 -0.16 l -0.16,0.16 h -0.161 -0.16 -0.32 -0.32 -0.481 -0.641 c -7.039,-7.03 -17.277,-7.19 -21.757,-7.19 v -4 c 2.558,0 9.918,0 16.16,3.19 v -56.96 c 0,-3.68 0,-5.12 -11.203,-5.12 h -4.317 v -4 c 19.84,0 2.078,0.16 15.84,0.48 4,0 7.52,0 21.598,-0.32 l 2.402,3.84 h -4.16 c -11.203,0 -11.203,1.44 -11.203,5.12 v 61.93" /><path
         id="path160"
         style="fill:none;stroke:#000000;stroke-width:7.5;stroke-linecap:butt;stroke-linejoin:miter;stroke-miterlimit:10;stroke-dasharray:none;stroke-opacity:1"
         d="m 788.09,1118.52 v 1.75 h -0.16 v 0.48 l -0.16,0.16 v 0 l -0.157,0.16 v 0 l -0.16,0.16 v 0 l -0.16,0.16 h -0.16 -0.16 l -0.16,0.16 h -0.161 -0.16 -0.32 -0.32 -0.481 -0.641 c -7.039,-7.03 -17.277,-7.19 -21.757,-7.19 v -4 c 2.558,0 9.918,0 16.16,3.19 v -56.96 c 0,-3.68 0,-5.12 -11.203,-5.12 h -4.317 v -4 c 19.84,0 2.078,0.16 15.84,0.48 4,0 7.52,0 21.598,-0.32 l 2.402,3.84 h -4.16 c -11.203,0 -11.203,1.44 -11.203,5.12 z" /><path
         id="path162"
         style="fill:#000000;fill-opacity:1;fill-rule:evenodd;stroke:none"
         d="m 422.023,1026.79 h -0.48 l -0.32,-0.16 h -0.801 l -0.481,-0.16 -0.32,-0.16 -0.316,-0.16 h -0.321 l -0.48,-0.16 -0.32,-0.32 -0.321,-0.16 -0.32,-0.16 -0.16,-0.16 -0.32,-0.32 -0.321,-0.16 -0.32,-0.32 -0.16,-0.16 -0.321,-0.32 -0.16,-0.32 -0.16,-0.16 -0.16,-0.32 -0.316,-0.32 -0.161,-0.32 v -0.32 l -0.16,-0.32 -0.16,-0.32 -0.16,-0.32 v -0.64 l -0.16,-0.32 v -0.64 c 0,-2.24 1.437,-4.64 4.961,-4.64 3.519,0 7.359,2.72 7.359,8.96 0,7.2 -6.883,13.76 -19.043,13.76 -20.957,0 -26.879,-16.32 -26.879,-23.36 0,-12.48 11.84,-14.72 16.321,-15.681 8.32,-1.602 16.64,-3.359 16.64,-12.16 0,-4.16 -3.68,-17.602 -22.879,-17.602 -2.082,0 -14.402,0 -18.082,8.481 6.082,-0.797 10.082,4 10.082,8.48 0,3.68 -2.562,5.602 -5.922,5.602 -4.16,0 -8.961,-3.36 -8.961,-10.563 0,-9.117 9.122,-15.519 22.883,-15.519 25.758,0 32,19.359 32,26.562 0,5.758 -3.043,9.6 -4.961,11.52 -4.32,4.48 -8.961,5.28 -16,6.72 -5.761,1.28 -12,2.4 -12,9.6 0,4.64 3.68,14.4 17.758,14.4 4,0 12,-1.12 14.402,-7.36" /><path
         id="path164"
         style="fill:none;stroke:#000000;stroke-width:7.5;stroke-linecap:butt;stroke-linejoin:miter;stroke-miterlimit:10;stroke-dasharray:none;stroke-opacity:1"
         d="m 422.023,1026.79 h -0.48 l -0.32,-0.16 h -0.801 l -0.481,-0.16 -0.32,-0.16 -0.316,-0.16 h -0.321 l -0.48,-0.16 -0.32,-0.32 -0.321,-0.16 -0.32,-0.16 -0.16,-0.16 -0.32,-0.32 -0.321,-0.16 -0.32,-0.32 -0.16,-0.16 -0.321,-0.32 -0.16,-0.32 -0.16,-0.16 -0.16,-0.32 -0.316,-0.32 -0.161,-0.32 v -0.32 l -0.16,-0.32 -0.16,-0.32 -0.16,-0.32 v -0.64 l -0.16,-0.32 v -0.64 c 0,-2.24 1.437,-4.64 4.961,-4.64 3.519,0 7.359,2.72 7.359,8.96 0,7.2 -6.883,13.76 -19.043,13.76 -20.957,0 -26.879,-16.32 -26.879,-23.36 0,-12.48 11.84,-14.72 16.321,-15.681 8.32,-1.602 16.64,-3.359 16.64,-12.16 0,-4.16 -3.68,-17.602 -22.879,-17.602 -2.082,0 -14.402,0 -18.082,8.481 6.082,-0.797 10.082,4 10.082,8.48 0,3.68 -2.562,5.602 -5.922,5.602 -4.16,0 -8.961,-3.36 -8.961,-10.563 0,-9.117 9.122,-15.519 22.883,-15.519 25.758,0 32,19.359 32,26.562 0,5.758 -3.043,9.6 -4.961,11.52 -4.32,4.48 -8.961,5.28 -16,6.72 -5.761,1.28 -12,2.4 -12,9.6 0,4.64 3.68,14.4 17.758,14.4 4,0 12,-1.12 14.402,-7.36 z" /><path
         id="path166"
         style="fill:#000000;fill-opacity:1;fill-rule:evenodd;stroke:none"
         d="m 490.824,963.59 h -3.84 c -0.32,-2.402 -1.441,-9.121 -2.882,-10.082 -0.957,-0.801 -9.438,-0.801 -11.039,-0.801 h -20.481 c 11.68,10.402 15.52,13.602 22.242,18.723 8.321,6.718 16,13.597 16,24.16 0,13.44 -11.84,21.76 -26.242,21.76 -13.758,0 -23.199,-9.76 -23.199,-20.002 0,-5.598 4.801,-6.239 5.922,-6.239 2.718,0 5.918,1.918 5.918,5.918 0,2.082 -0.641,5.923 -6.559,5.923 3.52,8 11.039,10.4 16.32,10.4 11.2,0 16.957,-8.64 16.957,-17.76 0,-9.762 -6.878,-17.442 -10.558,-21.442 L 442.504,947.59 c -1.121,-0.961 -1.121,-1.121 -1.121,-4.32 h 46.078 l 3.363,20.32" /><path
         id="path168"
         style="fill:none;stroke:#000000;stroke-width:7.5;stroke-linecap:butt;stroke-linejoin:miter;stroke-miterlimit:10;stroke-dasharray:none;stroke-opacity:1"
         d="m 490.824,963.59 h -3.84 c -0.32,-2.402 -1.441,-9.121 -2.882,-10.082 -0.957,-0.801 -9.438,-0.801 -11.039,-0.801 h -20.481 c 11.68,10.402 15.52,13.602 22.242,18.723 8.321,6.718 16,13.597 16,24.16 0,13.44 -11.84,21.76 -26.242,21.76 -13.758,0 -23.199,-9.76 -23.199,-20.002 0,-5.598 4.801,-6.239 5.922,-6.239 2.718,0 5.918,1.918 5.918,5.918 0,2.082 -0.641,5.923 -6.559,5.923 3.52,8 11.039,10.4 16.32,10.4 11.2,0 16.957,-8.64 16.957,-17.76 0,-9.762 -6.878,-17.442 -10.558,-21.442 L 442.504,947.59 c -1.121,-0.961 -1.121,-1.121 -1.121,-4.32 h 46.078 z" /><path
         id="path170"
         style="fill:#000000;fill-opacity:1;fill-rule:evenodd;stroke:none"
         d="m 1044.88,502.219 h -0.48 l -0.32,-0.16 h -0.8 l -0.48,-0.161 -0.32,-0.16 -0.32,-0.16 h -0.32 l -0.48,-0.16 -0.32,-0.32 -0.32,-0.16 -0.32,-0.161 -0.16,-0.16 -0.32,-0.32 -0.32,-0.16 -0.32,-0.321 -0.16,-0.16 -0.32,-0.32 -0.16,-0.316 -0.16,-0.161 -0.16,-0.32 -0.32,-0.32 -0.16,-0.321 v -0.32 l -0.16,-0.32 -0.16,-0.32 -0.16,-0.321 v -0.64 l -0.16,-0.321 v -0.636 c 0,-2.243 1.44,-4.641 4.96,-4.641 3.52,0 7.36,2.719 7.36,8.957 0,7.203 -6.88,13.762 -19.04,13.762 -20.96,0 -26.88,-16.321 -26.88,-23.36 0,-12.48 11.84,-14.718 16.32,-15.679 8.32,-1.602 16.64,-3.36 16.64,-12.161 0,-4.16 -3.68,-17.601 -22.88,-17.601 -2.08,0 -14.399,0 -18.078,8.48 6.078,-0.8 10.078,4 10.078,8.481 0,3.68 -2.56,5.601 -5.922,5.601 -4.156,0 -8.957,-3.363 -8.957,-10.562 0,-9.121 9.117,-15.52 22.879,-15.52 25.76,0 32,19.36 32,26.559 0,5.762 -3.04,9.602 -4.96,11.523 -4.32,4.477 -8.96,5.278 -16,6.719 -5.76,1.281 -12,2.399 -12,9.598 0,4.64 3.68,14.402 17.76,14.402 4,0 12,-1.121 14.4,-7.359" /><path
         id="path172"
         style="fill:none;stroke:#000000;stroke-width:7.5;stroke-linecap:butt;stroke-linejoin:miter;stroke-miterlimit:10;stroke-dasharray:none;stroke-opacity:1"
         d="m 1044.88,502.219 h -0.48 l -0.32,-0.16 h -0.8 l -0.48,-0.161 -0.32,-0.16 -0.32,-0.16 h -0.32 l -0.48,-0.16 -0.32,-0.32 -0.32,-0.16 -0.32,-0.161 -0.16,-0.16 -0.32,-0.32 -0.32,-0.16 -0.32,-0.321 -0.16,-0.16 -0.32,-0.32 -0.16,-0.316 -0.16,-0.161 -0.16,-0.32 -0.32,-0.32 -0.16,-0.321 v -0.32 l -0.16,-0.32 -0.16,-0.32 -0.16,-0.321 v -0.64 l -0.16,-0.321 v -0.636 c 0,-2.243 1.44,-4.641 4.96,-4.641 3.52,0 7.36,2.719 7.36,8.957 0,7.203 -6.88,13.762 -19.04,13.762 -20.96,0 -26.88,-16.321 -26.88,-23.36 0,-12.48 11.84,-14.718 16.32,-15.679 8.32,-1.602 16.64,-3.36 16.64,-12.161 0,-4.16 -3.68,-17.601 -22.88,-17.601 -2.08,0 -14.399,0 -18.078,8.48 6.078,-0.8 10.078,4 10.078,8.481 0,3.68 -2.56,5.601 -5.922,5.601 -4.156,0 -8.957,-3.363 -8.957,-10.562 0,-9.121 9.117,-15.52 22.879,-15.52 25.76,0 32,19.36 32,26.559 0,5.762 -3.04,9.602 -4.96,11.523 -4.32,4.477 -8.96,5.278 -16,6.719 -5.76,1.281 -12,2.399 -12,9.598 0,4.64 3.68,14.402 17.76,14.402 4,0 12,-1.121 14.4,-7.359 z" /><path
         id="path174"
         style="fill:#000000;fill-opacity:1;fill-rule:evenodd;stroke:none"
         d="m 1070.96,425.738 -0.16,-0.16 v -0.32 l -0.16,-0.16 v -0.481 l -0.16,-0.16 v -0.32 l -0.16,-0.481 v -0.32 l -0.16,-0.316 v -0.321 l -0.16,-0.16 v -0.48 l -0.16,-0.161 v -0.8 c 0,-2.399 1.92,-3.52 3.68,-3.52 2.08,0 3.84,1.442 4.48,2.399 0.48,1.121 1.44,4.64 1.92,7.043 0.64,2.078 1.76,7.199 2.4,9.918 0.8,2.558 1.44,4.96 1.92,7.519 1.28,4.641 1.44,5.441 4.8,10.082 3.04,4.481 8.32,10.238 16.64,10.238 6.56,0 6.56,-5.601 6.56,-7.839 0,-6.719 -4.8,-19.04 -6.56,-23.68 -1.28,-3.199 -1.6,-4.16 -1.6,-6.082 0,-5.918 4.8,-9.598 10.56,-9.598 11.2,0 16,15.36 16,17.121 0,1.438 -1.44,1.438 -1.76,1.438 -1.44,0 -1.6,-0.641 -2.08,-1.918 -2.56,-8.961 -7.36,-13.442 -11.84,-13.442 -2.4,0 -2.72,1.442 -2.72,3.84 0,2.559 0.48,4 2.56,9.121 1.28,3.36 5.92,15.2 5.92,21.438 0,10.883 -8.64,12.801 -14.56,12.801 -9.28,0 -15.52,-5.758 -18.88,-10.239 -0.8,7.68 -7.36,10.239 -11.84,10.239 -4.96,0 -7.52,-3.52 -8.96,-6.079 -2.4,-4.16 -4,-10.562 -4,-11.039 0,-1.441 1.6,-1.441 1.92,-1.441 1.6,0 1.76,0.32 2.56,3.359 1.6,6.559 3.68,12 8,12 3.04,0 3.68,-2.398 3.68,-5.441 0,-2.078 -0.96,-6.238 -1.76,-9.277 -0.8,-3.039 -1.92,-7.68 -2.4,-10.082 l -3.52,-14.239" /><path
         id="path176"
         style="fill:none;stroke:#000000;stroke-width:7.5;stroke-linecap:butt;stroke-linejoin:miter;stroke-miterlimit:10;stroke-dasharray:none;stroke-opacity:1"
         d="m 1070.96,425.738 -0.16,-0.16 v -0.32 l -0.16,-0.16 v -0.481 l -0.16,-0.16 v -0.32 l -0.16,-0.481 v -0.32 l -0.16,-0.316 v -0.321 l -0.16,-0.16 v -0.48 l -0.16,-0.161 v -0.8 c 0,-2.399 1.92,-3.52 3.68,-3.52 2.08,0 3.84,1.442 4.48,2.399 0.48,1.121 1.44,4.64 1.92,7.043 0.64,2.078 1.76,7.199 2.4,9.918 0.8,2.558 1.44,4.96 1.92,7.519 1.28,4.641 1.44,5.441 4.8,10.082 3.04,4.481 8.32,10.238 16.64,10.238 6.56,0 6.56,-5.601 6.56,-7.839 0,-6.719 -4.8,-19.04 -6.56,-23.68 -1.28,-3.199 -1.6,-4.16 -1.6,-6.082 0,-5.918 4.8,-9.598 10.56,-9.598 11.2,0 16,15.36 16,17.121 0,1.438 -1.44,1.438 -1.76,1.438 -1.44,0 -1.6,-0.641 -2.08,-1.918 -2.56,-8.961 -7.36,-13.442 -11.84,-13.442 -2.4,0 -2.72,1.442 -2.72,3.84 0,2.559 0.48,4 2.56,9.121 1.28,3.36 5.92,15.2 5.92,21.438 0,10.883 -8.64,12.801 -14.56,12.801 -9.28,0 -15.52,-5.758 -18.88,-10.239 -0.8,7.68 -7.36,10.239 -11.84,10.239 -4.96,0 -7.52,-3.52 -8.96,-6.079 -2.4,-4.16 -4,-10.562 -4,-11.039 0,-1.441 1.6,-1.441 1.92,-1.441 1.6,0 1.76,0.32 2.56,3.359 1.6,6.559 3.68,12 8,12 3.04,0 3.68,-2.398 3.68,-5.441 0,-2.078 -0.96,-6.238 -1.76,-9.277 -0.8,-3.039 -1.92,-7.68 -2.4,-10.082 z" /><path
         id="path178"
         style="fill:#000000;fill-opacity:1;fill-rule:evenodd;stroke:none"
         d="m 1218.96,443.977 h 2.24 l 0.16,0.16 h 0.32 l 0.16,0.16 h 0.16 l 0.16,0.16 h 0.16 l 0.16,0.16 h 0.16 l 0.16,0.16 0.16,0.161 v 0.16 h 0.16 v 0.16 l 0.16,0.16 v 0.32 h 0.16 v 0.801 c 0,2.879 -2.56,2.879 -4.48,2.879 h -66.4 c -1.76,0 -4.48,0 -4.48,-2.719 0,-2.722 2.56,-2.722 4.48,-2.722 h 66.4" /><path
         id="path180"
         style="fill:none;stroke:#000000;stroke-width:7.5;stroke-linecap:butt;stroke-linejoin:miter;stroke-miterlimit:10;stroke-dasharray:none;stroke-opacity:1"
         d="m 1218.96,443.977 h 2.24 l 0.16,0.16 h 0.32 l 0.16,0.16 h 0.16 l 0.16,0.16 h 0.16 l 0.16,0.16 h 0.16 l 0.16,0.16 0.16,0.161 v 0.16 h 0.16 v 0.16 l 0.16,0.16 v 0.32 h 0.16 v 0.801 c 0,2.879 -2.56,2.879 -4.48,2.879 h -66.4 c -1.76,0 -4.48,0 -4.48,-2.719 0,-2.722 2.56,-2.722 4.48,-2.722 z" /><path
         id="path182"
         style="fill:#000000;fill-opacity:1;fill-rule:evenodd;stroke:none"
         d="m 1273.04,489.738 v 1.918 h -0.16 v 0.481 h -0.16 v 0.16 h -0.16 v 0.16 h -0.16 l -0.16,0.16 h -0.32 l -0.16,0.16 h -0.32 -0.16 -0.32 -0.32 -0.96 c -7.04,-7.039 -17.28,-7.199 -21.76,-7.199 v -4 c 2.56,0 10.08,0 16.16,3.199 v -56.961 c 0,-3.679 0,-5.117 -11.2,-5.117 h -4.16 v -4 c 19.84,0 1.92,0.16 15.68,0.477 4.16,0 7.52,0 21.6,-0.317 l 2.56,3.84 h -4.32 c -11.2,0 -11.2,1.438 -11.2,5.117 v 61.922" /><path
         id="path184"
         style="fill:none;stroke:#000000;stroke-width:7.5;stroke-linecap:butt;stroke-linejoin:miter;stroke-miterlimit:10;stroke-dasharray:none;stroke-opacity:1"
         d="m 1273.04,489.738 v 1.918 h -0.16 v 0.481 h -0.16 v 0.16 h -0.16 v 0.16 h -0.16 l -0.16,0.16 h -0.32 l -0.16,0.16 h -0.32 -0.16 -0.32 -0.32 -0.96 c -7.04,-7.039 -17.28,-7.199 -21.76,-7.199 v -4 c 2.56,0 10.08,0 16.16,3.199 v -56.961 c 0,-3.679 0,-5.117 -11.2,-5.117 h -4.16 v -4 c 19.84,0 1.92,0.16 15.68,0.477 4.16,0 7.52,0 21.6,-0.317 l 2.56,3.84 h -4.32 c -11.2,0 -11.2,1.438 -11.2,5.117 z" /><path
         id="path186"
         style="fill:#000000;fill-opacity:1;fill-rule:evenodd;stroke:none"
         d="m 640.309,397.074 h -0.481 l -0.32,-0.16 h -0.801 l -0.48,-0.16 -0.317,-0.16 -0.32,-0.16 h -0.32 l -0.481,-0.161 -0.32,-0.316 -0.321,-0.16 -0.32,-0.16 -0.16,-0.16 -0.32,-0.321 -0.321,-0.16 -0.32,-0.32 -0.16,-0.16 -0.32,-0.321 -0.157,-0.32 -0.16,-0.16 -0.16,-0.32 -0.32,-0.321 -0.16,-0.32 v -0.32 l -0.161,-0.321 -0.16,-0.316 -0.16,-0.32 v -0.641 l -0.16,-0.32 v -0.641 c 0,-2.238 1.441,-4.641 4.961,-4.641 3.519,0 7.359,2.723 7.359,8.961 0,7.2 -6.879,13.762 -19.039,13.762 -20.961,0 -26.883,-16.32 -26.883,-23.363 0,-12.481 11.84,-14.719 16.321,-15.68 8.32,-1.598 16.64,-3.359 16.64,-12.16 0,-4.16 -3.679,-17.598 -22.879,-17.598 -2.082,0 -14.402,0 -18.082,8.481 6.082,-0.801 10.082,4 10.082,8.476 0,3.684 -2.562,5.602 -5.921,5.602 -4.161,0 -8.961,-3.36 -8.961,-10.559 0,-9.121 9.121,-15.519 22.882,-15.519 25.758,0 32,19.359 32,26.558 0,5.762 -3.039,9.602 -4.961,11.52 -4.32,4.48 -8.96,5.281 -16,6.719 -5.761,1.281 -12,2.402 -12,9.601 0,4.641 3.68,14.399 17.762,14.399 4,0 12,-1.118 14.399,-7.36" /><path
         id="path188"
         style="fill:none;stroke:#000000;stroke-width:7.5;stroke-linecap:butt;stroke-linejoin:miter;stroke-miterlimit:10;stroke-dasharray:none;stroke-opacity:1"
         d="m 640.309,397.074 h -0.481 l -0.32,-0.16 h -0.801 l -0.48,-0.16 -0.317,-0.16 -0.32,-0.16 h -0.32 l -0.481,-0.161 -0.32,-0.316 -0.321,-0.16 -0.32,-0.16 -0.16,-0.16 -0.32,-0.321 -0.321,-0.16 -0.32,-0.32 -0.16,-0.16 -0.32,-0.321 -0.157,-0.32 -0.16,-0.16 -0.16,-0.32 -0.32,-0.321 -0.16,-0.32 v -0.32 l -0.161,-0.321 -0.16,-0.316 -0.16,-0.32 v -0.641 l -0.16,-0.32 v -0.641 c 0,-2.238 1.441,-4.641 4.961,-4.641 3.519,0 7.359,2.723 7.359,8.961 0,7.2 -6.879,13.762 -19.039,13.762 -20.961,0 -26.883,-16.32 -26.883,-23.363 0,-12.481 11.84,-14.719 16.321,-15.68 8.32,-1.598 16.64,-3.359 16.64,-12.16 0,-4.16 -3.679,-17.598 -22.879,-17.598 -2.082,0 -14.402,0 -18.082,8.481 6.082,-0.801 10.082,4 10.082,8.476 0,3.684 -2.562,5.602 -5.921,5.602 -4.161,0 -8.961,-3.36 -8.961,-10.559 0,-9.121 9.121,-15.519 22.882,-15.519 25.758,0 32,19.359 32,26.558 0,5.762 -3.039,9.602 -4.961,11.52 -4.32,4.48 -8.96,5.281 -16,6.719 -5.761,1.281 -12,2.402 -12,9.601 0,4.641 3.68,14.399 17.762,14.399 4,0 12,-1.118 14.399,-7.36 z" /><path
         id="path190"
         style="fill:#000000;fill-opacity:1;fill-rule:evenodd;stroke:none"
         d="m 666.387,320.594 -0.16,-0.16 v -0.321 l -0.157,-0.156 v -0.48 l -0.16,-0.161 v -0.32 l -0.16,-0.48 v -0.321 l -0.16,-0.32 v -0.32 l -0.16,-0.16 v -0.481 l -0.16,-0.16 v -0.797 c 0,-2.402 1.918,-3.523 3.679,-3.523 2.078,0 3.84,1.441 4.481,2.402 0.48,1.121 1.437,4.641 1.918,7.039 0.64,2.082 1.761,7.199 2.402,9.922 0.797,2.558 1.438,4.957 1.918,7.519 1.281,4.641 1.441,5.438 4.801,10.079 3.039,4.48 8.32,10.242 16.64,10.242 6.559,0 6.559,-5.602 6.559,-7.84 0,-6.723 -4.801,-19.043 -6.559,-23.684 -1.281,-3.199 -1.601,-4.156 -1.601,-6.078 0,-5.922 4.801,-9.601 10.562,-9.601 11.2,0 16,15.363 16,17.121 0,1.441 -1.441,1.441 -1.761,1.441 -1.442,0 -1.602,-0.641 -2.082,-1.922 -2.559,-8.961 -7.36,-13.437 -11.84,-13.437 -2.399,0 -2.719,1.437 -2.719,3.84 0,2.558 0.48,4 2.559,9.117 1.281,3.363 5.921,15.203 5.921,21.441 0,10.879 -8.64,12.801 -14.558,12.801 -9.281,0 -15.52,-5.762 -18.883,-10.242 -0.797,7.679 -7.359,10.242 -11.84,10.242 -4.957,0 -7.519,-3.52 -8.957,-6.082 -2.402,-4.16 -4,-10.559 -4,-11.039 0,-1.442 1.598,-1.442 1.918,-1.442 1.602,0 1.762,0.321 2.559,3.364 1.601,6.558 3.683,12 8,12 3.043,0 3.683,-2.403 3.683,-5.442 0,-2.082 -0.961,-6.238 -1.761,-9.281 -0.801,-3.039 -1.922,-7.68 -2.399,-10.078 l -3.523,-14.242" /><path
         id="path192"
         style="fill:none;stroke:#000000;stroke-width:7.5;stroke-linecap:butt;stroke-linejoin:miter;stroke-miterlimit:10;stroke-dasharray:none;stroke-opacity:1"
         d="m 666.387,320.594 -0.16,-0.16 v -0.321 l -0.157,-0.156 v -0.48 l -0.16,-0.161 v -0.32 l -0.16,-0.48 v -0.321 l -0.16,-0.32 v -0.32 l -0.16,-0.16 v -0.481 l -0.16,-0.16 v -0.797 c 0,-2.402 1.918,-3.523 3.679,-3.523 2.078,0 3.84,1.441 4.481,2.402 0.48,1.121 1.437,4.641 1.918,7.039 0.64,2.082 1.761,7.199 2.402,9.922 0.797,2.558 1.438,4.957 1.918,7.519 1.281,4.641 1.441,5.438 4.801,10.079 3.039,4.48 8.32,10.242 16.64,10.242 6.559,0 6.559,-5.602 6.559,-7.84 0,-6.723 -4.801,-19.043 -6.559,-23.684 -1.281,-3.199 -1.601,-4.156 -1.601,-6.078 0,-5.922 4.801,-9.601 10.562,-9.601 11.2,0 16,15.363 16,17.121 0,1.441 -1.441,1.441 -1.761,1.441 -1.442,0 -1.602,-0.641 -2.082,-1.922 -2.559,-8.961 -7.36,-13.437 -11.84,-13.437 -2.399,0 -2.719,1.437 -2.719,3.84 0,2.558 0.48,4 2.559,9.117 1.281,3.363 5.921,15.203 5.921,21.441 0,10.879 -8.64,12.801 -14.558,12.801 -9.281,0 -15.52,-5.762 -18.883,-10.242 -0.797,7.679 -7.359,10.242 -11.84,10.242 -4.957,0 -7.519,-3.52 -8.957,-6.082 -2.402,-4.16 -4,-10.559 -4,-11.039 0,-1.442 1.598,-1.442 1.918,-1.442 1.602,0 1.762,0.321 2.559,3.364 1.601,6.558 3.683,12 8,12 3.043,0 3.683,-2.403 3.683,-5.442 0,-2.082 -0.961,-6.238 -1.761,-9.281 -0.801,-3.039 -1.922,-7.68 -2.399,-10.078 z" /><path
         id="path194"
         style="fill:#000000;fill-opacity:1;fill-rule:evenodd;stroke:none"
         d="m 814.387,338.836 h 2.242 l 0.16,0.16 h 0.32 l 0.161,0.16 h 0.16 l 0.16,0.16 h 0.16 l 0.16,0.161 h 0.16 l 0.157,0.16 0.16,0.16 v 0.16 h 0.16 v 0.156 l 0.16,0.16 v 0.321 h 0.16 v 0.801 c 0,2.878 -2.558,2.878 -4.48,2.878 h -66.399 c -1.761,0 -4.48,0 -4.48,-2.718 0,-2.719 2.562,-2.719 4.48,-2.719 h 66.399" /><path
         id="path196"
         style="fill:none;stroke:#000000;stroke-width:7.5;stroke-linecap:butt;stroke-linejoin:miter;stroke-miterlimit:10;stroke-dasharray:none;stroke-opacity:1"
         d="m 814.387,338.836 h 2.242 l 0.16,0.16 h 0.32 l 0.161,0.16 h 0.16 l 0.16,0.16 h 0.16 l 0.16,0.161 h 0.16 l 0.157,0.16 0.16,0.16 v 0.16 h 0.16 v 0.156 l 0.16,0.16 v 0.321 h 0.16 v 0.801 c 0,2.878 -2.558,2.878 -4.48,2.878 h -66.399 c -1.761,0 -4.48,0 -4.48,-2.718 0,-2.719 2.562,-2.719 4.48,-2.719 z" /><path
         id="path198"
         style="fill:#000000;fill-opacity:1;fill-rule:evenodd;stroke:none"
         d="m 887.508,333.875 h -3.84 c -0.32,-2.398 -1.441,-9.121 -2.879,-10.078 -0.961,-0.801 -9.441,-0.801 -11.039,-0.801 h -20.48 c 11.679,10.399 15.519,13.598 22.238,18.719 8.32,6.719 16,13.601 16,24.16 0,13.441 -11.84,21.762 -26.078,21.762 -13.922,0 -23.203,-9.762 -23.203,-20 0,-5.602 4.8,-6.242 5.921,-6.242 2.559,0 5.922,1.921 5.922,5.921 0,2.079 -0.8,5.918 -6.722,5.918 3.519,8 11.039,10.403 16.32,10.403 11.199,0 16.961,-8.641 16.961,-17.762 0,-9.762 -6.879,-17.441 -10.402,-21.441 l -26.879,-26.559 c -1.121,-0.961 -1.121,-1.121 -1.121,-4.32 h 45.921 l 3.36,20.32" /><path
         id="path200"
         style="fill:none;stroke:#000000;stroke-width:7.5;stroke-linecap:butt;stroke-linejoin:miter;stroke-miterlimit:10;stroke-dasharray:none;stroke-opacity:1"
         d="m 887.508,333.875 h -3.84 c -0.32,-2.398 -1.441,-9.121 -2.879,-10.078 -0.961,-0.801 -9.441,-0.801 -11.039,-0.801 h -20.48 c 11.679,10.399 15.519,13.598 22.238,18.719 8.32,6.719 16,13.601 16,24.16 0,13.441 -11.84,21.762 -26.078,21.762 -13.922,0 -23.203,-9.762 -23.203,-20 0,-5.602 4.8,-6.242 5.921,-6.242 2.559,0 5.922,1.921 5.922,5.921 0,2.079 -0.8,5.918 -6.722,5.918 3.519,8 11.039,10.403 16.32,10.403 11.199,0 16.961,-8.641 16.961,-17.762 0,-9.762 -6.879,-17.441 -10.402,-21.441 l -26.879,-26.559 c -1.121,-0.961 -1.121,-1.121 -1.121,-4.32 h 45.921 z" /><path
         id="path202"
         style="fill:#000000;fill-opacity:1;fill-rule:evenodd;stroke:none"
         d="m 1087.16,894.219 h -0.47 l -0.32,-0.16 h -0.8 l -0.48,-0.161 -0.32,-0.16 -0.32,-0.16 h -0.32 l -0.49,-0.16 -0.32,-0.32 -0.32,-0.16 -0.31,-0.161 -0.16,-0.16 -0.32,-0.32 -0.32,-0.16 -0.32,-0.321 -0.16,-0.16 -0.32,-0.32 -0.16,-0.316 -0.16,-0.161 -0.16,-0.32 -0.32,-0.32 -0.16,-0.321 v -0.32 l -0.17,-0.32 -0.16,-0.32 -0.16,-0.321 v -0.64 l -0.16,-0.321 v -0.636 c 0,-2.243 1.45,-4.641 4.97,-4.641 3.51,0 7.35,2.719 7.35,8.957 0,7.203 -6.87,13.762 -19.03,13.762 -20.97,0 -26.88,-16.321 -26.88,-23.36 0,-12.48 11.84,-14.718 16.32,-15.679 8.32,-1.602 16.63,-3.36 16.63,-12.161 0,-4.16 -3.68,-17.601 -22.88,-17.601 -2.07,0 -14.39,0 -18.07,8.48 6.07,-0.8 10.07,4 10.07,8.481 0,3.68 -2.55,5.601 -5.91,5.601 -4.16,0 -8.96,-3.363 -8.96,-10.562 0,-9.121 9.12,-15.52 22.87,-15.52 25.77,0 32,19.36 32,26.559 0,5.762 -3.03,9.602 -4.96,11.523 -4.31,4.477 -8.95,5.278 -16,6.719 -5.75,1.281 -12,2.399 -12,9.598 0,4.64 3.69,14.402 17.77,14.402 4,0 12,-1.121 14.39,-7.359" /><path
         id="path204"
         style="fill:none;stroke:#000000;stroke-width:7.5;stroke-linecap:butt;stroke-linejoin:miter;stroke-miterlimit:10;stroke-dasharray:none;stroke-opacity:1"
         d="m 1087.16,894.219 h -0.47 l -0.32,-0.16 h -0.8 l -0.48,-0.161 -0.32,-0.16 -0.32,-0.16 h -0.32 l -0.49,-0.16 -0.32,-0.32 -0.32,-0.16 -0.31,-0.161 -0.16,-0.16 -0.32,-0.32 -0.32,-0.16 -0.32,-0.321 -0.16,-0.16 -0.32,-0.32 -0.16,-0.316 -0.16,-0.161 -0.16,-0.32 -0.32,-0.32 -0.16,-0.321 v -0.32 l -0.17,-0.32 -0.16,-0.32 -0.16,-0.321 v -0.64 l -0.16,-0.321 v -0.636 c 0,-2.243 1.45,-4.641 4.97,-4.641 3.51,0 7.35,2.719 7.35,8.957 0,7.203 -6.87,13.762 -19.03,13.762 -20.97,0 -26.88,-16.321 -26.88,-23.36 0,-12.48 11.84,-14.718 16.32,-15.679 8.32,-1.602 16.63,-3.36 16.63,-12.161 0,-4.16 -3.68,-17.601 -22.88,-17.601 -2.07,0 -14.39,0 -18.07,8.48 6.07,-0.8 10.07,4 10.07,8.481 0,3.68 -2.55,5.601 -5.91,5.601 -4.16,0 -8.96,-3.363 -8.96,-10.562 0,-9.121 9.12,-15.52 22.87,-15.52 25.77,0 32,19.36 32,26.559 0,5.762 -3.03,9.602 -4.96,11.523 -4.31,4.477 -8.95,5.278 -16,6.719 -5.75,1.281 -12,2.399 -12,9.598 0,4.64 3.69,14.402 17.77,14.402 4,0 12,-1.121 14.39,-7.359 z" /><path
         id="path206"
         style="fill:#000000;fill-opacity:1;fill-rule:evenodd;stroke:none"
         d="m 1113.25,817.738 -0.16,-0.16 v -0.32 l -0.16,-0.16 v -0.481 l -0.16,-0.16 v -0.32 l -0.16,-0.481 v -0.32 l -0.16,-0.316 v -0.321 l -0.16,-0.16 v -0.48 l -0.16,-0.161 v -0.8 c 0,-2.399 1.92,-3.52 3.67,-3.52 2.09,0 3.84,1.442 4.49,2.399 0.48,1.121 1.44,4.64 1.92,7.043 0.63,2.078 1.75,7.199 2.4,9.918 0.8,2.558 1.44,4.96 1.92,7.519 1.27,4.641 1.43,5.441 4.79,10.082 3.05,4.481 8.32,10.238 16.64,10.238 6.57,0 6.57,-5.601 6.57,-7.839 0,-6.719 -4.8,-19.04 -6.57,-23.68 -1.27,-3.199 -1.59,-4.16 -1.59,-6.082 0,-5.918 4.79,-9.598 10.56,-9.598 11.2,0 16,15.36 16,17.121 0,1.438 -1.45,1.438 -1.77,1.438 -1.43,0 -1.59,-0.641 -2.07,-1.918 -2.56,-8.961 -7.36,-13.442 -11.84,-13.442 -2.41,0 -2.72,1.442 -2.72,3.84 0,2.559 0.47,4 2.56,9.121 1.28,3.36 5.91,15.2 5.91,21.438 0,10.883 -8.63,12.801 -14.55,12.801 -9.29,0 -15.52,-5.758 -18.88,-10.239 -0.8,7.68 -7.36,10.239 -11.84,10.239 -4.96,0 -7.52,-3.52 -8.96,-6.079 -2.4,-4.16 -4,-10.562 -4,-11.039 0,-1.441 1.6,-1.441 1.92,-1.441 1.6,0 1.76,0.32 2.56,3.359 1.59,6.559 3.68,12 8,12 3.04,0 3.68,-2.398 3.68,-5.441 0,-2.078 -0.97,-6.238 -1.77,-9.277 -0.79,-3.039 -1.91,-7.68 -2.39,-10.082 l -3.52,-14.239" /><path
         id="path208"
         style="fill:none;stroke:#000000;stroke-width:7.5;stroke-linecap:butt;stroke-linejoin:miter;stroke-miterlimit:10;stroke-dasharray:none;stroke-opacity:1"
         d="m 1113.25,817.738 -0.16,-0.16 v -0.32 l -0.16,-0.16 v -0.481 l -0.16,-0.16 v -0.32 l -0.16,-0.481 v -0.32 l -0.16,-0.316 v -0.321 l -0.16,-0.16 v -0.48 l -0.16,-0.161 v -0.8 c 0,-2.399 1.92,-3.52 3.67,-3.52 2.09,0 3.84,1.442 4.49,2.399 0.48,1.121 1.44,4.64 1.92,7.043 0.63,2.078 1.75,7.199 2.4,9.918 0.8,2.558 1.44,4.96 1.92,7.519 1.27,4.641 1.43,5.441 4.79,10.082 3.05,4.481 8.32,10.238 16.64,10.238 6.57,0 6.57,-5.601 6.57,-7.839 0,-6.719 -4.8,-19.04 -6.57,-23.68 -1.27,-3.199 -1.59,-4.16 -1.59,-6.082 0,-5.918 4.79,-9.598 10.56,-9.598 11.2,0 16,15.36 16,17.121 0,1.438 -1.45,1.438 -1.77,1.438 -1.43,0 -1.59,-0.641 -2.07,-1.918 -2.56,-8.961 -7.36,-13.442 -11.84,-13.442 -2.41,0 -2.72,1.442 -2.72,3.84 0,2.559 0.47,4 2.56,9.121 1.28,3.36 5.91,15.2 5.91,21.438 0,10.883 -8.63,12.801 -14.55,12.801 -9.29,0 -15.52,-5.758 -18.88,-10.239 -0.8,7.68 -7.36,10.239 -11.84,10.239 -4.96,0 -7.52,-3.52 -8.96,-6.079 -2.4,-4.16 -4,-10.562 -4,-11.039 0,-1.441 1.6,-1.441 1.92,-1.441 1.6,0 1.76,0.32 2.56,3.359 1.59,6.559 3.68,12 8,12 3.04,0 3.68,-2.398 3.68,-5.441 0,-2.078 -0.97,-6.238 -1.77,-9.277 -0.79,-3.039 -1.91,-7.68 -2.39,-10.082 z" /></g></g></svg>